<?xml version="1.0" encoding="UTF-8" standalone="no"?>
<!-- Created with Inkscape (http://www.inkscape.org/) -->

<svg
   version="1.1"
   id="svg1"
   width="2000"
   height="2000"
   viewBox="0 0 1999.9999 2000"
   sodipodi:docname="acm-uoc-square.svg"
   inkscape:version="1.4 (e7c3feb1, 2024-10-09)"
   inkscape:export-filename="acm-uoc-square_1024x1024.png"
   inkscape:export-xdpi="49.152"
   inkscape:export-ydpi="49.152"
   xmlns:inkscape="http://www.inkscape.org/namespaces/inkscape"
   xmlns:sodipodi="http://sodipodi.sourceforge.net/DTD/sodipodi-0.dtd"
   xmlns="http://www.w3.org/2000/svg"
   xmlns:svg="http://www.w3.org/2000/svg">
  <sodipodi:namedview
     id="namedview1"
     pagecolor="#ffffff"
     bordercolor="#000000"
     borderopacity="0.25"
     inkscape:showpageshadow="2"
     inkscape:pageopacity="0.0"
     inkscape:pagecheckerboard="0"
     inkscape:deskcolor="#d1d1d1"
     inkscape:zoom="0.5"
     inkscape:cx="847"
     inkscape:cy="1007"
     inkscape:window-width="2240"
     inkscape:window-height="1202"
     inkscape:window-x="0"
     inkscape:window-y="30"
     inkscape:window-maximized="1"
     inkscape:current-layer="svg1" />
  <defs
     id="defs1">
    <rect
       x="2652.9412"
       y="494.11765"
       width="958.82355"
       height="382.35294"
       id="rect3" />
    <clipPath
       clipPathUnits="userSpaceOnUse"
       id="clipPath89">
      <rect
         style="fill:#1f5174;fill-opacity:1;stroke:#000000;stroke-width:10;stroke-linejoin:round;stroke-dasharray:none;stroke-opacity:0.141612"
         id="rect89"
         width="1327.7061"
         height="1327.7061"
         x="-663.85303"
         y="643.5874"
         ry="205.95105"
         transform="rotate(-45)" />
    </clipPath>
  </defs>
  <rect
     style="fill:#c8ddf2;fill-opacity:1;stroke:none;stroke-width:6.91097;stroke-linejoin:round;paint-order:markers stroke fill"
     id="rect1"
     width="2000"
     height="2000"
     x="0"
     y="0" />
  <g
     id="g1"
     transform="translate(75.499906,75.499967)"
     inkscape:label="Logo Group">
    <rect
       style="fill:#1f5174;fill-opacity:1;stroke:#000000;stroke-width:24;stroke-linejoin:round;stroke-dasharray:none;stroke-opacity:0.997821;paint-order:markers stroke fill"
       id="rect2"
       width="1327.7061"
       height="1327.7061"
       x="-663.85303"
       y="643.58746"
       ry="205.95105"
       transform="rotate(-45)"
       inkscape:label="Outer Rect" />
    <path
       id="rect4"
       style="fill:#ffffff;fill-opacity:1;stroke-width:0.931234"
       d="m 451.80078,830.63477 v 38.41211 h 945.39842 v -38.41211 z m -32.85547,57.92773 v 47.61914 H 1430.0547 V 888.5625 Z m 147.41211,67.13672 v 69.83988 h 69.8418 v -69.83988 z m 92.34961,0 v 69.83988 h 69.83985 v -69.83988 z m 92.34766,0 v 69.83988 h 69.84179 v -69.83988 z m 92.34961,0 v 69.83988 h 69.84179 v -69.83988 z m 92.34961,0 v 69.83988 h 69.84179 v -69.83988 z m 92.34959,0 v 69.83988 h 69.8418 v -69.83988 z m 92.3496,0 v 69.83988 h 69.8399 v -69.83988 z m 92.3477,0 v 69.83988 h 69.8418 v -69.83988 z m -759.42775,1.58594 v 66.66794 h 90.47656 v -66.66794 z m 851.77735,0 v 66.66794 h 90.4766 v -66.66794 z m -886.20509,87.76954 v 47.6191 H 1430.0547 v -47.6191 z m 39.97657,67.1348 v 22.2246 h 33.33203 v 48.125 h 128.57226 v -48.125 h 33.33399 v -22.2246 z m 214.48632,0 v 43.9589 h -31.50781 v 47.0957 h -19.17773 v 417.2871 h 235.5957 v -130.0546 h 20.94336 v 129.8046 h 90.47656 v -129.8046 h 20.94336 v 130.0546 h 235.59566 v -417.2871 h -19.1777 v -47.0957 h -31.5078 v -43.9589 h -134.2246 v 43.9589 h -31.5078 v 47.0957 h -19.17776 v 93.5821 h -20.94336 v -92.418 h -90.47656 v 92.418 h -20.94336 v -93.5821 h -19.17774 v -47.0957 h -31.50781 v -43.9589 z m 153.47266,0 v 22.2246 h 33.33203 v 48.125 h 128.57227 v -48.125 h 33.33394 v -22.2246 z m 367.95894,0 v 22.2246 h 33.3321 v 48.125 h 128.5722 v -48.125 h 33.334 v -22.2246 z m -683.53707,92.1757 v 593.6504 h 90.47461 v -593.6504 z m 735.91997,0.6993 v 593.6503 h 90.4746 v -593.6503 z"
       clip-path="url(#clipPath89)"
       inkscape:label="Palace" />
    <text
       xml:space="preserve"
       id="text3"
       style="font-style:normal;font-variant:normal;font-weight:bold;font-stretch:normal;font-size:200px;font-family:'Helvetica Neue';-inkscape-font-specification:'Helvetica Neue, Bold';font-variant-ligatures:normal;font-variant-caps:normal;font-variant-numeric:normal;font-variant-east-asian:normal;text-align:start;writing-mode:lr-tb;direction:ltr;white-space:pre;shape-inside:url(#rect3);display:inline;fill:#ffffff;fill-opacity:1"
       transform="matrix(1.985193,0,0,1.985193,-4744.6976,-617.48078)"
       inkscape:label="ACM"><tspan
         x="2652.9414"
         y="682.70779"
         id="tspan2">acm</tspan></text>
    <text
       xml:space="preserve"
       id="text3-8"
       style="font-style:normal;font-variant:normal;font-weight:bold;font-stretch:normal;font-size:203.236px;font-family:'Helvetica Neue';-inkscape-font-specification:'Helvetica Neue, Bold';font-variant-ligatures:normal;font-variant-caps:normal;font-variant-numeric:normal;font-variant-east-asian:normal;text-align:start;writing-mode:lr-tb;direction:ltr;white-space:pre;fill:#1f5174;fill-opacity:1;stroke-width:1.01618"
       x="691.99811"
       y="1466.3077"
       inkscape:label="UOC"><tspan
         id="tspan1"
         style="font-style:normal;font-variant:normal;font-weight:bold;font-stretch:normal;font-size:203.236px;font-family:'Helvetica Neue';-inkscape-font-specification:'Helvetica Neue, Bold';font-variant-ligatures:normal;font-variant-caps:normal;font-variant-numeric:normal;font-variant-east-asian:normal;fill:#1f5174;fill-opacity:1;stroke-width:1.01618">UOC</tspan></text>
  </g>
</svg>
