<?xml version="1.0" encoding="UTF-8" standalone="no"?>
<!-- Created with Inkscape (http://www.inkscape.org/) -->

<svg
   version="1.1"
   id="svg1"
   width="334"
   height="334"
   viewBox="0 0 334 334"
   sodipodi:docname="uoc.svg"
   inkscape:export-filename="uoc-whitefill_64x64.png"
   inkscape:export-xdpi="18.39521"
   inkscape:export-ydpi="18.39521"
   inkscape:version="1.4 (e7c3feb1, 2024-10-09)"
   xmlns:inkscape="http://www.inkscape.org/namespaces/inkscape"
   xmlns:sodipodi="http://sodipodi.sourceforge.net/DTD/sodipodi-0.dtd"
   xmlns="http://www.w3.org/2000/svg"
   xmlns:svg="http://www.w3.org/2000/svg">
  <sodipodi:namedview
     id="namedview1"
     pagecolor="#9e9e9e"
     bordercolor="#000000"
     borderopacity="0.25"
     inkscape:showpageshadow="2"
     inkscape:pageopacity="0.0"
     inkscape:pagecheckerboard="0"
     inkscape:deskcolor="#d1d1d1"
     inkscape:zoom="2.29"
     inkscape:cx="91.921397"
     inkscape:cy="158.73362"
     inkscape:window-width="2240"
     inkscape:window-height="1202"
     inkscape:window-x="0"
     inkscape:window-y="30"
     inkscape:window-maximized="1"
     inkscape:current-layer="g1" />
  <defs
     id="defs1" />
  <g
     id="g1"
     transform="translate(-22.7982,-22.238996)"
     inkscape:label="Logo">
    <circle
       style="display:inline;fill:#fefefe;fill-opacity:1;stroke:#89211b;stroke-width:6.00498;stroke-linejoin:round;stroke-dasharray:none;stroke-opacity:1;paint-order:markers stroke fill"
       id="path1"
       cx="189.7982"
       cy="189.239"
       r="163.99751"
       inkscape:label="Circle" />
    <path
       style="fill:#89211b;fill-opacity:1"
       d="m 180.52447,355.65109 c -23.84843,-1.53214 -45.36816,-7.33235 -65.98908,-17.78605 -31.729384,-16.08508 -57.722934,-42.12832 -73.743584,-73.88454 -9.01636,-17.87229 -13.98844,-34.44785 -16.74259,-55.81518 -0.84139,-6.52765 -0.87528,-7.20222 -0.90167,-17.94564 -0.0217,-8.81855 0.0782,-12.20173 0.47557,-16.10869 2.23163,-21.94256 7.65048,-40.76332 17.16869,-59.63039 16.02333,-31.761541 42.00888,-57.796762 73.743584,-73.884543 18.90026,-9.581413 37.4926,-14.963239 59.7717,-17.301794 6.81906,-0.715771 23.98527,-0.715771 30.80432,0 15.36935,1.613264 28.07659,4.467218 41.37829,9.293266 53.3511,19.356536 93.67812,65.194936 105.98454,120.469131 6.02427,27.05799 5.19263,55.32603 -2.40941,81.89767 -4.50417,15.74357 -11.7995,31.61451 -20.87687,45.41746 -24.99914,38.01344 -64.33539,64.2884 -108.73462,72.63014 -4.41457,0.82941 -10.65863,1.69806 -16.33106,2.27191 -2.98241,0.30171 -20.43152,0.58067 -23.59781,0.37725 z m 23.59781,-6.18105 c 16.50145,-1.5379 32.19563,-5.40452 47.06048,-11.59444 18.11626,-7.54384 33.57672,-17.55839 48.98476,-31.73002 l 1.79529,-1.65123 -3.26952,-2.31041 c -8.23057,-5.81615 -17.89772,-15.04098 -22.65994,-21.62313 l -0.57801,-0.79891 -4.08503,3.58832 c -9.54031,8.38026 -18.43852,14.49769 -28.53066,19.61455 -15.13607,7.67421 -29.45222,11.73949 -48.04345,13.64264 -4.2999,0.44018 -22.60492,0.45025 -26.7065,0.0147 -1.55435,-0.16506 -2.862,-0.26685 -2.9059,-0.22621 -0.0439,0.0407 0.50977,1.64886 1.23037,3.5738 1.67888,4.48474 7.07465,20.7599 8.46849,25.54335 0.58879,2.02065 1.14573,3.7634 1.23765,3.87277 0.6731,0.80097 19.69736,0.85819 28.00197,0.0842 z m -30.23911,-0.2559 c 0,-0.34799 -2.7008,-9.05762 -3.80842,-12.28151 -3.49533,-10.17369 -7.44683,-19.84467 -8.41186,-20.58736 -0.19569,-0.1506 -2.07264,-0.75272 -4.17101,-1.33805 -8.86423,-2.47263 -18.46473,-6.13868 -26.7065,-10.19815 -12.61719,-6.21458 -29.03999,-17.58751 -36.158794,-25.04029 -1.3906,-1.45584 -3.68631,-3.85514 -5.10158,-5.33177 -2.9238,-3.05057 -9.6936,-11.36759 -12.94669,-15.90562 -2.05098,-2.86109 -5.51417,-8.69255 -8.0012,-13.47275 -1.19247,-2.29198 -3.64051,-5.14889 -5.02743,-5.86708 -1.12125,-0.58063 -3.75871,-0.56352 -5.00629,0.0325 -0.5245,0.25056 -1.87144,1.27243 -2.99322,2.27081 -3.24014,2.88376 -5.94699,4.52189 -9.82811,5.94778 -1.55352,0.57076 -1.76535,0.75324 -2.49735,2.15142 -1.5262,2.91517 -0.7608,5.54113 4.39632,15.08298 24.99289,46.24259 69.689864,77.26356 121.161654,84.08964 4.07406,0.5403 5.10048,0.63035 5.10048,0.44748 z m 16.5326,-34.93961 c 7.38735,-0.54255 18.80613,-2.20299 19.47289,-2.83159 0.15192,-0.14322 0.11908,-1.07691 -0.081,-2.30277 -0.45149,-2.76647 -2.66808,-11.83606 -3.74795,-15.33544 -0.47866,-1.55111 -1.55349,-5.4816 -2.38852,-8.73442 -0.83504,-3.25282 -1.55205,-5.94518 -1.59337,-5.98303 -0.0413,-0.0378 -2.42783,0.11754 -5.30338,0.34529 -6.01437,0.47637 -14.8733,0.32976 -19.35868,-0.32036 -7.12484,-1.0327 -17.0564,-3.40182 -22.74998,-5.42688 -1.94294,-0.69105 -3.69158,-1.30933 -3.88587,-1.37395 -0.80775,-0.26866 -0.23608,0.81836 1.63262,3.10445 8.4491,10.33624 16.63935,23.76349 22.02012,36.10019 l 1.19598,2.74207 1.60008,0.10123 c 3.58381,0.22672 9.46005,0.18894 13.18704,-0.0848 z m -17.3305,-1.33982 c -1.11872,-2.94422 -7.32287,-14.2928 -10.07555,-18.43011 -3.16628,-4.75895 -7.02494,-9.70599 -10.69284,-13.7089 -1.28184,-1.39891 -3.61528,-4.00597 -5.18542,-5.79347 -8.36132,-9.51878 -15.67978,-14.84122 -24.66092,-17.93496 -1.61989,-0.55801 -3.07127,-0.97256 -3.22528,-0.92122 -0.44712,0.14904 3.70137,4.6315 6.90626,7.46225 3.02649,2.67316 14.56948,14.63317 17.27001,17.89392 4.95488,5.98278 9.67996,13.29997 16.71599,25.88618 2.85367,5.10472 3.07422,5.41388 4.0716,5.70747 1.83684,0.54071 5.46775,1.05671 8.0479,1.14371 l 1.34124,0.0452 z m -13.89774,-1.43039 c 0,-0.80012 -2.50473,-5.70447 -5.07492,-9.93689 -3.90697,-6.43373 -8.2786,-12.38695 -13.62274,-18.55127 -4.14078,-4.77628 -17.4628,-17.59695 -24.64331,-23.71592 -1.73147,-1.47549 -4.48345,-3.82649 -6.11552,-5.22444 -6.96164,-5.96303 -14.847014,-10.75373 -21.426024,-13.01724 -1.73581,-0.59721 -3.47406,-0.68936 -4.33293,-0.22971 -0.83417,0.44644 -1.35581,1.87303 -1.06088,2.90137 0.51123,1.78257 3.60265,4.01259 8.5332,6.15548 3.78985,1.64714 4.7018,2.49843 6.42034,5.9933 1.65953,3.37488 3.060034,5.36686 4.306034,6.12459 0.49356,0.30015 2.0468,0.89954 3.45164,1.33197 3.39675,1.04557 4.42907,2.08583 7.04267,7.09685 2.49841,4.79015 3.89206,6.01831 8.24106,7.26248 1.80139,0.51534 5.36222,2.11658 6.06898,2.72911 0.23588,0.20444 1.26879,1.45268 2.29535,2.77387 2.21678,2.85304 4.5263,5.09227 6.05737,5.87303 0.61033,0.31124 2.12709,0.95827 3.37056,1.43786 2.63356,1.0157 5.46814,3.135 7.71671,5.76944 1.91441,2.24295 2.92227,3.79471 5.12735,7.8944 1.90948,3.55012 4.21002,6.38462 5.91161,7.28374 1.30336,0.68869 1.73345,0.70059 1.73345,0.048 z m 57.08692,-1.32505 c 1.47663,-0.39205 3.67038,-1.03804 4.875,-1.43554 2.02164,-0.6671 2.19021,-0.7822 2.19021,-1.49544 0,-1.32101 -0.52587,-3.79552 -2.99502,-14.09316 -2.95189,-12.31089 -4.37012,-17.58769 -4.727,-17.58769 -0.15072,0 -1.74965,0.43289 -3.55318,0.96197 -1.80352,0.52908 -3.73394,1.03939 -4.28982,1.13403 -2.08309,0.35464 -2.1182,0.47372 -1.26257,4.2821 0.41666,1.85454 1.63204,7.56863 2.70084,12.69798 1.78436,8.56336 3.21655,15.01749 3.52755,15.89673 0.1714,0.48457 0.46048,0.45504 3.53399,-0.36098 z m -64.75521,-1.62085 c -1.25229,-2.45469 -4.20255,-7.19203 -5.19634,-8.34395 -1.44808,-1.6785 -3.59061,-3.06677 -8.04916,-5.21552 -4.571,-2.20294 -6.28976,-3.62884 -8.05642,-6.68369 -2.3671,-4.09308 -4.18034,-5.28858 -10.37426,-6.83994 -1.88788,-0.47284 -3.75904,-1.0309 -4.15813,-1.24012 -1.80465,-0.94607 -3.04633,-2.94235 -5.36753,-8.62947 -0.97147,-2.38021 -2.19174,-4.0266 -3.47707,-4.69126 -0.47387,-0.24505 -2.05461,-0.68554 -3.51274,-0.97886 -1.45814,-0.29333 -3.02747,-0.72791 -3.487394,-0.96575 -1.27997,-0.6619 -2.93011,-3.07067 -4.79626,-7.00126 -1.86777,-3.934 -2.32479,-4.37871 -5.68964,-5.53639 -4.39724,-1.51287 -6.54464,-3.1035 -9.46932,-7.01413 -2.4069,-3.21829 -2.83618,-3.67559 -3.15302,-3.35875 -0.39167,0.39166 0.55371,3.55376 1.80999,6.05405 1.78967,3.56188 3.35098,5.20497 6.76127,7.11542 3.55424,1.99108 5.70008,3.97362 7.39817,6.83518 1.63745,2.75936 3.5097,4.5203 7.05615,6.63666 1.978164,1.18047 3.121174,2.10368 4.299364,3.4726 1.69535,1.96979 4.05795,5.60056 4.41303,6.7818 0.77074,2.56402 2.85243,4.03409 8.61872,6.08644 5.56339,1.98013 6.80691,2.82255 9.76469,6.61513 2.63838,3.38302 3.2521,3.80662 8.66545,5.98109 1.98163,0.796 4.08022,1.79299 4.66353,2.21554 0.58331,0.42254 2.45925,2.26645 4.16876,4.09757 3.45077,3.69625 6.40615,6.10332 7.22932,5.88806 0.50154,-0.13116 0.4991,-0.18225 -0.0612,-1.28045 z m -9.4427,-1.69208 c -0.90971,-3.00386 -4.24249,-5.55147 -11.00712,-8.41396 -4.05549,-1.71611 -5.51506,-2.75443 -9.32752,-6.63553 l -3.3913,-3.45235 -3.5326,-1.47151 c -6.17901,-2.57387 -7.14925,-3.33513 -9.748,-7.64832 -2.61783,-4.34486 -3.9357,-5.70806 -7.011734,-7.25294 -3.21632,-1.61533 -4.83766,-3.2297 -7.3746,-7.34292 -2.84371,-4.61059 -3.77984,-5.59895 -6.49773,-6.86026 -2.97043,-1.37852 -4.34957,-2.86714 -6.00503,-6.4818 -2.34072,-5.11087 -2.43878,-5.27189 -3.21071,-5.27189 -0.65146,0 -0.70546,0.0996 -0.69282,1.27761 0.0259,2.41522 2.49164,6.73133 8.88941,15.56032 4.97091,6.85991 6.88116,9.0777 12.75999,14.81422 5.119694,4.99575 11.263564,9.8904 18.380054,14.64285 8.74837,5.84224 25.58941,15.09621 27.58997,15.1604 0.25595,0.008 0.31213,-0.18678 0.17974,-0.62392 z M 230.2438,305.606 c 5.56839,-2.19876 10.71243,-4.59071 15.13933,-7.03972 5.44564,-3.01258 4.95774,-2.38719 4.54313,-5.82346 -1.35281,-11.21194 -3.75598,-21.53347 -6.84324,-29.39145 l -1.41301,-3.59651 -2.07545,1.81006 c -4.88472,4.26012 -11.06468,8.12811 -17.66794,11.05825 -1.32119,0.58627 -2.49969,1.14733 -2.61887,1.24681 -0.11919,0.0995 0.22274,2.0164 0.75985,4.25982 1.76746,7.38251 3.37032,16.88368 4.44143,26.32719 l 0.34377,3.03086 0.72712,-0.16369 c 0.39993,-0.09 2.49867,-0.8632 4.66388,-1.71816 z m 74.32275,-3.7319 0.78921,-0.82375 -2.22003,-1.6312 c -7.70531,-5.66159 -16.8296,-14.25848 -20.2235,-19.05454 -3.71217,-5.24582 -5.80107,-10.1022 -6.66684,-15.49936 -0.4973,-3.10014 -0.72571,-3.44715 -1.91291,-2.90622 -0.83444,0.38019 -0.88485,1.22814 -0.26546,4.46541 1.9751,10.32289 9.15595,20.38208 21.72076,30.42721 2.08907,1.67014 7.76442,5.84621 7.94509,5.84621 0.0245,0 0.39962,-0.37069 0.83368,-0.82376 z m 3.95936,-4.26319 c 21.26796,-23.15947 35.47083,-52.63691 40.28551,-83.61081 2.58862,-16.65317 2.54245,-34.6679 -0.12759,-49.7804 -0.37073,-2.09837 -0.82392,-4.76902 -1.00709,-5.93478 -0.87274,-5.55452 -4.32587,-17.74144 -7.20687,-25.43477 -8.60936,-22.99013 -23.11055,-44.570479 -41.1616,-61.255739 -2.55787,-2.364329 -4.78976,-4.205229 -5.15736,-4.253866 -0.44624,-0.05904 -2.17811,0.945856 -5.56119,3.226808 -5.76054,3.883891 -7.26671,4.678124 -10.29571,5.429163 -3.76918,0.934562 -4.31272,0.988732 -10.3022,1.026723 -3.63016,0.02303 -6.23411,0.165939 -6.97351,0.382728 -1.91475,0.561395 -5.65306,3.629246 -5.09834,4.183965 0.0694,0.06936 1.61227,-0.0687 3.42868,-0.306812 3.98281,-0.522102 8.17536,-0.552722 12.09404,-0.08833 1.5993,0.18953 3.39867,0.348497 3.9986,0.353261 l 1.09078,0.0087 -0.158,1.334013 c -0.37303,3.149723 -3.22946,8.346489 -6.30682,11.474181 -2.03887,2.072215 -2.07254,2.129673 -1.58698,2.708806 0.27285,0.325427 2.21526,2.372118 4.31646,4.548199 6.09478,6.31197 10.46836,11.7394 15.04406,18.66901 12.69491,19.22567 20.10965,41.04939 21.97233,64.67089 0.36755,4.66118 0.37059,16.53486 0.005,21.25486 -0.84046,10.86368 -2.56028,20.02631 -5.26083,28.028 -4.13364,12.24793 -12.2597,27.02265 -20.71571,37.66511 l -2.79395,3.51636 0.58641,1.05493 c 2.04855,3.68533 9.95077,12.2661 15.46602,16.79409 3.73185,3.06382 8.82305,6.90751 9.03137,6.81839 0.10345,-0.0443 1.18077,-1.16145 2.39406,-2.48264 z m -1.95241,-25.02674 c -5.74799,-3.18703 -10.54405,-5.88775 -10.6579,-6.00161 -0.11385,-0.11385 0.30285,-1.13032 0.92602,-2.25883 l 1.13302,-2.05182 1.89444,1.05944 c 4.61719,2.58211 7.24561,4.01036 7.28188,3.9569 0.41584,-0.613 4.36159,-7.89265 4.35921,-8.04246 -0.002,-0.11602 -0.79669,-0.64092 -1.76631,-1.16644 -0.96962,-0.52553 -2.99278,-1.63978 -4.4959,-2.47612 l -2.73295,-1.52061 1.1665,-2.09388 1.1665,-2.09387 1.14254,0.6633 c 0.6284,0.36481 5.48961,3.06579 10.80269,6.00218 l 9.66015,5.33889 -1.12083,2.02976 c -0.61646,1.11637 -1.19115,2.02976 -1.27707,2.02976 -0.0859,0 -1.97819,-1.01739 -4.20502,-2.26087 -2.22683,-1.24348 -4.17562,-2.26087 -4.33064,-2.26087 -0.28348,0 -4.72756,7.86734 -4.53388,8.02631 0.057,0.0468 1.88409,1.07095 4.06018,2.27589 2.17608,1.20494 4.06663,2.29417 4.20122,2.42052 0.23011,0.21602 -1.74232,4.24229 -2.07048,4.22641 -0.0839,-0.004 -4.85539,-2.61495 -10.60337,-5.80198 z m 16.43005,-34.19059 c -6.19298,-1.44775 -11.30523,-2.67754 -11.36057,-2.73287 -0.0926,-0.0927 0.0912,-0.98799 0.74715,-3.63953 l 0.25079,-1.01369 9.53955,2.2102 c 5.24676,1.2156 9.73914,2.21225 9.98308,2.21477 0.33999,0.004 0.65823,-0.93551 1.36326,-4.02259 0.50585,-2.21495 0.97542,-4.22743 1.04348,-4.47218 0.10284,-0.36979 -1.51292,-0.81969 -9.5589,-2.66164 -5.32546,-1.21915 -9.80171,-2.32067 -9.94721,-2.44781 -0.28726,-0.25101 0.59347,-4.47815 0.93302,-4.47815 0.38461,0 23.59965,5.38046 23.71569,5.49649 0.065,0.065 -0.81657,4.19562 -1.95907,9.17913 -2.05448,8.9615 -2.08503,9.06059 -2.78379,9.03053 -0.38859,-0.0167 -5.77351,-1.21491 -11.96648,-2.66266 z m -4.99004,-42.38043 v -4.09782 l 2.61413,0.006 2.61413,0.006 0.44037,0.89384 c 0.85725,1.74003 1.56814,2.01411 5.85246,2.25641 4.83333,0.27334 6.32977,0.10777 7.43559,-0.82272 1.19104,-1.00219 1.67375,-2.08468 1.67375,-3.75341 0,-2.33003 -1.15072,-3.92088 -3.25,-4.49307 -0.62174,-0.16947 -2.92386,-0.30883 -5.11581,-0.3097 -3.68538,-0.001 -4.05767,0.0471 -4.94565,0.64484 -0.52815,0.35552 -1.21462,1.05059 -1.52549,1.54459 -0.31253,0.49664 -0.73348,0.83937 -0.94159,0.76663 -0.20701,-0.0724 -1.31978,-0.13155 -2.47283,-0.13155 h -2.09645 v -4.09783 -4.09782 h 2.11957 2.11956 v 1.28612 1.28612 l 0.91848,-0.69965 c 1.5551,-1.1846 3.16023,-1.41306 8.50907,-1.21112 4.40882,0.16646 4.95974,0.2457 6.31366,0.90811 2.98981,1.46278 4.69477,4.52381 4.71379,8.46302 0.0195,4.04263 -1.69126,7.24404 -4.66229,8.72456 -1.45826,0.72669 -1.61072,0.74269 -7.01668,0.73662 -4.94415,-0.006 -5.65941,-0.0667 -6.79269,-0.58076 -0.69666,-0.316 -1.48743,-0.77434 -1.75726,-1.01854 -0.45667,-0.41328 -0.50352,-0.36331 -0.67708,0.72206 l -0.18646,1.16606 h -1.94214 -1.94214 z m 8.65915,-31.68944 c -0.92164,-0.28307 -1.81249,-0.86088 -2.70806,-1.75644 -1.37442,-1.37442 -1.72747,-2.27116 -2.88342,-7.32378 -0.25959,-1.13466 -0.44574,-1.45577 -0.78547,-1.35495 -1.49811,0.44463 -8.58334,2.14582 -8.6513,2.07723 -0.0452,-0.0457 -0.33664,-1.07679 -0.64757,-2.2914 -0.40813,-1.59432 -0.47383,-2.23723 -0.23628,-2.31213 2.461,-0.77601 23.5137,-5.75019 23.659,-5.58999 0.30351,0.33466 2.81472,10.84524 2.81292,11.77336 -0.003,1.55847 -0.68776,3.08697 -2.05114,4.57872 -2.22479,2.43428 -5.22168,3.20894 -8.50868,2.19938 z m 4.33691,-4.55554 c 1.12996,-0.56673 1.68944,-1.50255 1.69542,-2.83587 0.006,-1.26945 -1.13221,-5.71259 -1.46301,-5.71259 -0.35628,0 -5.94531,1.41965 -6.19391,1.57329 -0.24104,0.14897 0.72655,4.11559 1.36119,5.5802 0.78393,1.80914 2.64771,2.3743 4.60031,1.39497 z m -29.24249,-28.60661 c -0.54598,-1.08416 -0.99268,-2.02802 -0.99268,-2.09746 0,-0.0694 1.9394,-1.06831 4.30978,-2.21973 l 4.30978,-2.09348 5.08695,-6.65904 5.08695,-6.65904 1.0458,2.01846 c 0.57518,1.11015 1.05209,2.18379 1.05978,2.38585 0.008,0.20207 -1.45073,2.23685 -3.24094,4.52174 l -3.25492,4.15434 5.45668,0.0764 5.45667,0.0764 1.04825,2.11846 c 0.57653,1.16516 1.04824,2.20021 1.04824,2.30012 0,0.0999 -3.69379,0.1034 -8.20842,0.008 l -8.20841,-0.17391 -4.40878,2.10714 c -2.42482,1.15893 -4.45226,2.10714 -4.50541,2.10714 -0.0532,0 -0.54335,-0.88704 -1.08932,-1.9712 z M 288.47789,108.479 c -2.79615,-3.58557 -5.08392,-6.61027 -5.08392,-6.72156 0,-0.17188 4.78122,-3.959955 16.84648,-13.347181 l 2.43344,-1.89331 5.0099,6.393082 c 2.75544,3.516196 5.06821,6.545053 5.13949,6.730795 0.10857,0.282937 -2.62594,2.687614 -3.05625,2.687614 -0.077,0 -1.77285,-2.09837 -3.76864,-4.663042 -1.99578,-2.564673 -3.70149,-4.660594 -3.79047,-4.657603 -0.29555,0.0099 -4.54222,3.423121 -4.54222,3.650728 0,0.204024 0.94405,1.452777 4.84568,6.409667 l 1.36083,1.72889 -1.66657,1.30933 -1.66657,1.30933 -2.92038,-3.72591 c -1.60621,-2.04926 -3.04755,-3.892291 -3.20299,-4.095639 -0.22047,-0.288437 -0.68648,-0.05415 -2.11956,1.065619 -1.01033,0.78944 -2.07573,1.60655 -2.36757,1.8158 -0.4962,0.35578 -0.29004,0.68854 3.17935,5.1316 2.04047,2.61313 3.70602,4.81533 3.70122,4.89379 -0.008,0.13691 -2.27008,1.92007 -2.92874,2.30906 -0.19262,0.11377 -2.32878,-2.38954 -5.40251,-6.33106 z m -31.89292,182.94999 c 4.11586,-2.73449 13.31624,-10.18126 16.0267,-12.97198 l 1.36986,-1.41042 -1.06198,-2.64718 c -0.58409,-1.45595 -1.51846,-4.52203 -2.07638,-6.81351 l -1.01441,-4.16634 -2.40217,0.002 c -3.81102,0.003 -11.98556,0.52238 -15.68297,0.99622 -4.48725,0.57506 -4.71965,0.64053 -4.51888,1.27308 0.0898,0.28285 0.52881,2.77978 0.97565,5.54871 0.44683,2.76894 1.32381,8.08661 1.94885,11.81704 0.62504,3.73043 1.21769,7.54565 1.317,8.47825 0.21829,2.04988 0.38069,2.68479 0.6867,2.68479 0.12744,0 2.12186,-1.25578 4.43203,-2.79062 z m -60.65833,-14.46352 c 5.24388,-0.46456 5.36956,-0.49714 5.36956,-1.39197 0,-1.04647 -0.54995,-2.54953 -0.93284,-2.54953 -0.17178,0 -2.73461,0.20492 -5.69518,0.45539 -6.29617,0.53265 -15.8352,0.39869 -20.40665,-0.2866 -7.4516,-1.11703 -10.69742,-2.04965 -22.83099,-6.56007 -4.6903,-1.74353 -8.00177,-2.83255 -8.15306,-2.68126 -0.44677,0.44677 0.0747,1.38141 1.47141,2.63715 3.09793,2.78531 15.39045,7.05339 26.59081,9.23257 7.75405,1.50866 16.09315,1.89678 24.58694,1.14432 z m 15.76797,-3.52956 c 1.54309,-0.41466 2.95582,-0.84677 3.13941,-0.96023 0.24228,-0.14974 0.25993,-0.53503 0.0644,-1.40536 -0.14817,-0.65948 -0.31558,-1.24523 -0.37202,-1.30167 -0.0564,-0.0564 -1.60971,0.33171 -3.45171,0.86255 -1.842,0.53085 -4.09624,1.11217 -5.00943,1.29183 -1.79303,0.35275 -2.00897,0.71241 -1.3959,2.32491 l 0.26445,0.69554 1.9776,-0.37681 c 1.08769,-0.20725 3.24014,-0.71609 4.78322,-1.13076 z m 69.6269,-3.16737 c 5.28111,-5.55033 15.08316,-21.49317 18.78409,-30.55196 1.93258,-4.73038 1.64767,-4.95797 -1.11222,-0.88844 -1.3833,2.03969 -2.36528,3.15112 -3.52968,3.99496 -2.60352,1.88675 -4.24271,3.62471 -5.72567,6.07067 -0.76486,1.26154 -1.58316,2.45347 -1.81845,2.64874 -0.25036,0.20778 -0.42778,0.81979 -0.42778,1.47559 0,0.75936 -0.33388,1.72749 -1.03579,3.00344 -1.33486,2.42654 -5.3102,8.47473 -6.96617,10.5985 -0.70779,0.90773 -1.24154,1.79795 -1.18613,1.97826 0.7582,2.46718 1.0735,3.29523 1.25474,3.29523 0.11928,0 0.91266,-0.73125 1.76306,-1.62499 z m -59.6012,-0.53223 c 6.02713,-3.02549 11.43268,-6.72198 15.73477,-10.75993 l 2.38716,-2.2406 -0.36866,-0.89001 c -0.66296,-1.60053 -0.83337,-1.55825 -3.98175,0.9881 -3.7527,3.03511 -10.19382,7.32439 -14.4877,9.64768 -1.82415,0.98699 -3.31664,1.85269 -3.31664,1.92377 0,0.79928 0.71704,2.64039 1.02833,2.64039 0.21781,0 1.56983,-0.58923 3.00449,-1.3094 z m -28.90237,0.74254 c 2.84035,-0.2442 7.35791,-0.83031 7.55897,-0.98071 0.0384,-0.0287 -0.31132,-2.36582 -0.77718,-5.19353 -0.46585,-2.8277 -0.84701,-5.26557 -0.84701,-5.41748 0,-0.15191 0.24521,-0.27619 0.54492,-0.27619 0.63175,0 1.07618,1.06556 2.71102,6.49999 0.5845,1.94293 1.08882,3.56601 1.12073,3.60683 0.16747,0.21428 4.91245,-0.91004 7.5506,-1.7891 2.94353,-0.98083 3.0252,-1.03067 2.89517,-1.76678 -1.07718,-6.09799 -1.51059,-10.79007 -0.99668,-10.79007 0.45151,0 1.84073,3.12808 2.85319,6.42448 0.53626,1.74596 1.14669,3.24036 1.35652,3.32088 1.358,0.52111 17.74104,-9.9928 18.9862,-12.18451 0.49901,-0.87834 0.15228,-1.60976 -1.64562,-3.47147 -0.88238,-0.9137 -2.04944,-2.22026 -2.59346,-2.90346 -1.47254,-1.84928 -5.68445,-5.66096 -9.04347,-8.18412 -2.80221,-2.1049 -6.94136,-4.48005 -7.80736,-4.48005 -0.21674,0 -1.32071,0.88336 -2.45326,1.96302 -1.13254,1.07966 -2.43477,2.25303 -2.89384,2.60749 -0.45906,0.35446 -0.96184,0.78315 -1.11727,0.95264 -0.15544,0.16948 -0.98207,0.87136 -1.83696,1.55971 -0.85489,0.68835 -1.72284,1.41154 -1.92879,1.60708 -0.20595,0.19554 -0.96899,0.7616 -1.69565,1.2579 -0.72666,0.49631 -1.44838,1.04764 -1.60381,1.22518 -0.15544,0.17754 -2.50815,1.7321 -5.22826,3.45457 -8.78961,5.5659 -15.06311,8.32959 -24.02173,10.58238 -6.15449,1.54765 -13.3978,2.46223 -19.64129,2.48002 -3.86483,0.011 -7.20651,0.27527 -7.20651,0.56989 0,0.87217 15.61223,6.1772 22.32607,7.58639 2.50476,0.52573 10.01832,1.62161 12.57608,1.83427 2.61629,0.21752 9.8434,0.16399 12.85868,-0.0953 z m 86.19383,-8.23641 c 0.99266,-1.37032 1.04528,-1.65325 0.30749,-1.65325 -1.15913,0 -1.43615,0.30566 -1.43615,1.58459 0,0.68282 0.0628,1.2415 0.13953,1.2415 0.0767,0 0.52185,-0.52778 0.98913,-1.17284 z m -26.59284,-1.23985 c 2.25884,-0.53246 7.39594,-0.96827 11.48247,-0.97414 7.19057,-0.0103 10.6571,-0.92917 16.60423,-4.40113 3.79856,-2.21762 4.79015,-2.98051 4.39179,-3.37887 -0.0947,-0.0947 -0.85326,-0.23908 -1.68565,-0.32081 -1.21677,-0.11947 -2.16378,0.0501 -4.83092,0.86517 -3.78088,1.15539 -5.37378,1.25166 -9.54122,0.57664 -5.46029,-0.88444 -10.85219,-3.25092 -14.01933,-6.15303 -1.0435,-0.95617 -3.67762,-3.95479 -5.85361,-6.6636 -8.98096,-11.18005 -14.10907,-16.13498 -21.50167,-20.77556 -3.0705,-1.92745 -4.00497,-2.03886 -5.40003,-0.64379 -1.14749,1.14749 -1.6744,2.93737 -1.42949,4.85587 0.0994,0.7783 0.25605,2.49607 0.3482,3.81727 0.20294,2.9095 0.0443,2.70214 6.95358,9.08683 2.63301,2.43308 5.58116,5.29449 6.55145,6.35869 2.77224,3.04057 7.51507,9.84708 10.70214,15.35881 0.66786,1.155 1.22275,1.71771 2.15975,2.19021 1.47301,0.7428 2.58432,0.78697 5.06831,0.20144 z m -89.44241,-4.11168 c 7.05783,-1.0504 10.1266,-1.77302 15.711,-3.69957 7.30419,-2.51985 14.0185,-5.94083 14.59169,-7.43454 0.17254,-0.44962 -1.26165,-3.81977 -1.62553,-3.81977 -0.13159,0 -0.57497,-0.66766 -0.98528,-1.48369 -0.41031,-0.81603 -0.92398,-1.67446 -1.14148,-1.90761 -0.39461,-0.42302 -2.9229,-3.60877 -5.02612,-6.33311 -3.63683,-4.71089 -6.31517,-6.91339 -11.66957,-9.59632 -4.04511,-2.02689 -10.94504,-4.76989 -13.50239,-5.36774 -9.57005,-2.23726 -18.66086,-3.57238 -24.32423,-3.57238 -5.09764,0 -9.36132,1.21059 -10.9615,3.1123 -1.43392,1.70412 -1.57597,7.44188 -0.24847,10.03573 0.31631,0.61804 1.70399,2.52262 3.08375,4.2324 2.62893,3.25775 2.81182,3.58808 3.75542,6.7826 1.41721,4.7979 4.02477,5.49733 9.76661,2.6197 0.77368,-0.38775 2.29691,-0.86701 3.38495,-1.06503 3.9368,-0.71648 4.88765,-1.78026 4.58405,-5.12848 -0.12213,-1.34683 -0.0714,-1.65445 0.27259,-1.65445 0.66396,0 1.78331,1.46318 3.18188,4.15925 1.24618,2.40229 1.34659,2.5118 3.12451,3.40778 2.89818,1.46052 4.95298,1.59696 9.46739,0.62867 8.68007,-1.86178 11.74201,-2.11285 15.70076,-1.28743 3.73013,0.77776 6.76662,2.67837 6.76662,4.23539 0,0.74154 -0.93813,1.69226 -2.10689,2.13516 -1.04207,0.3949 -2.49583,0.16458 -5.24094,-0.83032 -3.03369,-1.0995 -5.67657,-1.65039 -8.81659,-1.83776 -2.28518,-0.13636 -3.34167,-0.0408 -6.35869,0.57489 -3.05213,0.62291 -4.10452,0.71591 -6.72687,0.59449 -1.70979,-0.0792 -3.39484,-0.23343 -3.74457,-0.34282 -0.59293,-0.18545 -0.63569,-0.11554 -0.63331,1.03517 0.001,0.67872 0.31935,2.63064 0.70652,4.33758 0.38718,1.70695 0.70397,3.40036 0.70397,3.76315 0,0.74824 -0.46873,1.75287 -0.81784,1.75287 -0.47744,0 -2.47502,-5.78958 -3.98618,-11.55318 l -0.32459,-1.23798 -1.76503,0.18083 c -1.34331,0.13762 -2.84076,0.66958 -6.26722,2.22638 -4.47982,2.03539 -4.51435,2.04555 -6.95428,2.04627 -2.04709,6.1e-4 -2.58388,-0.097 -3.24999,-0.59105 -1.15888,-0.85952 -1.98491,-2.49563 -2.52929,-5.00973 -0.63489,-2.93209 -1.50779,-4.10033 -4.14539,-5.54793 -3.46441,-1.90138 -4.02306,-2.86985 -4.45772,-7.72787 -0.47274,-5.2837 -0.77109,-6.77698 -2.28189,-11.42092 -1.56191,-4.80104 -1.49343,-4.2036 -1.28889,-11.24522 0.0506,-1.74062 -0.0933,-2.36866 -1.19777,-5.22825 l -1.25524,-3.25 -0.0273,-6.92391 c -0.015,-3.80815 -0.19008,-10.73912 -0.38899,-15.40216 -0.31108,-7.29249 -0.46161,-8.89328 -1.0763,-11.44565 -0.97263,-4.03864 -1.16946,-7.64929 -0.52308,-9.59536 0.7303,-2.19873 1.26445,-2.35945 7.94417,-2.39045 5.80848,-0.027 6.11784,-0.0997 6.46201,-1.52033 0.10201,-0.42107 0.95091,-2.15593 1.88645,-3.85525 1.42931,-2.59622 1.67313,-3.23806 1.52665,-4.01885 -0.37564,-2.00234 -2.67389,-3.50459 -4.68562,-3.06274 -0.44692,0.0982 -1.65226,0.72997 -2.67854,1.40403 -3.58711,2.35603 -4.45006,2.01133 -2.59893,-1.03811 0.69746,-1.14895 1.77994,-3.10697 2.4055,-4.35115 1.30209,-2.58973 1.81319,-2.94373 4.23972,-2.93657 1.20432,0.004 2.21888,0.26006 4.01387,1.01482 5.96154,2.50673 7.64327,2.86848 8.98059,1.93179 0.80215,-0.56185 0.78992,-0.83698 -0.0757,-1.70257 -0.61471,-0.61472 -0.874,-0.6832 -2.04891,-0.54118 -1.55977,0.18855 -1.60467,0.16342 -2.9923,-1.67492 -1.80192,-2.3872 -4.68246,-3.83704 -7.62341,-3.83704 -2.66627,0 -4.26276,1.45447 -7.65521,6.97421 -1.92608,3.13388 -3.1751,4.6903 -7.89726,9.84096 -1.99507,2.1761 -4.37165,5.10112 -5.28129,6.50003 -2.72599,4.19223 -3.07922,4.66304 -3.49856,4.66304 -0.65742,0 -0.83126,-2.00898 -0.33982,-3.92725 0.54644,-2.13298 1.89465,-4.82529 4.52793,-9.04209 2.34744,-3.75906 2.99088,-5.40849 2.99088,-7.66698 0,-2.03672 -0.88629,-3.78986 -2.48535,-4.9162 -2.59555,-1.82823 -5.7478,-0.63107 -8.367594,3.17785 -1.51072,2.19643 -1.6345,3.20764 -1.78757,14.60293 l -0.14046,10.45652 0.88653,6.21739 c 0.48759,3.41956 1.13319,7.48912 1.43466,9.04347 0.943564,4.86482 1.185454,8.19719 1.271854,17.52172 0.10633,11.47575 0.7003,16.73958 2.65504,23.52946 0.76563,2.65946 1.28956,4.01799 4.10506,10.64429 1.64377,3.86862 1.51703,3.66423 7.63669,12.31535 5.24936,7.42081 7.59253,10.11795 10.92087,12.57063 7.99373,5.89065 25.31592,9.50894 37.11575,7.75281 z m -35.90558,-8.8259 c -2.58917,-1.90605 -6.65643,-6.86457 -8.32321,-10.14709 -1.36854,-2.69518 -1.05329,-2.87093 1.35273,-0.75417 0.90279,0.79426 2.35144,1.92913 3.21921,2.52194 1.60303,1.09508 2.52561,2.32059 5.02963,6.68108 1.8567,3.23325 1.48235,3.73055 -1.27836,1.69824 z m -13.38607,-18.62683 c -2.70517,-3.65894 -5.47776,-9.06278 -7.16695,-13.96857 -1.74865,-5.07845 -3.97605,-17.69411 -3.79651,-21.50289 0.11399,-2.41836 0.6306,-3.13812 2.42519,-3.37882 1.53372,-0.20572 2.61649,0.57363 3.43257,2.47065 0.53416,1.2417 0.658,2.2724 0.8923,7.42646 0.39553,8.70101 1.22105,13.63989 3.69094,22.08207 0.63846,2.18229 1.38843,4.75234 1.66659,5.71123 0.27816,0.95889 0.43186,1.81731 0.34157,1.90761 -0.36225,0.36225 -0.84449,0.11954 -1.4857,-0.74774 z m 172.95081,19.95158 c 0.4856,-0.4086 1.44229,-1.71213 2.12597,-2.89673 1.10691,-1.9179 1.56742,-2.39495 4.20418,-4.35516 l 2.96112,-2.20134 2.30005,-4.58126 c 1.26502,-2.5197 2.79784,-5.17285 3.40626,-5.89589 1.44842,-1.72131 1.92536,-2.74236 1.4253,-3.05141 -1.35679,-0.83855 -3.88046,2.11815 -6.46516,7.5745 -1.56445,3.30259 -3.62091,5.47231 -7.27418,7.67481 -5.04809,3.04341 -7.04281,5.8254 -5.62661,7.8473 0.60348,0.86159 1.84001,0.81335 2.94307,-0.11482 z m -168.70899,-1.19294 c 0,-2.22259 -5.92381,-7.4344 -10.19148,-8.96654 -5.10139,-1.83144 -8.679614,-4.31809 -11.965034,-8.31498 -3.71258,-4.51655 -4.02433,-5.19561 -7.03443,-15.3226 -0.1718,-0.57798 -0.22565,-1.13758 -0.11968,-1.24356 0.10598,-0.10597 2.08413,0.0339 4.39591,0.31076 2.31177,0.2769 4.33736,0.45498 4.50129,0.39574 0.4525,-0.16352 -0.99561,-4.44463 -1.76299,-5.21201 -1.09236,-1.09235 -2.29703,-1.1219 -7.01245,-0.17202 -5.0464,1.01656 -10.67935,1.60274 -12.90026,1.34244 -0.86564,-0.10146 -3.29074,-0.65642 -5.38911,-1.23325 -3.66681,-1.00799 -3.9856,-1.04802 -8.19565,-1.02912 -3.82242,0.0172 -4.74012,0.1162 -7.20411,0.77747 -5.42701,1.45647 -8.86522,3.66053 -10.21637,6.54921 -1.30146,2.78243 -0.64818,5.58406 1.91806,8.22568 2.13934,2.20218 4.66755,3.01931 10.83938,3.50334 7.39822,0.5802 11.51289,1.39845 17.13176,3.40687 6.99148,2.49904 11.47839,4.42324 18.10027,7.76227 9.309204,4.69408 16.655154,7.87291 21.514044,9.30982 3.16063,0.93468 3.59085,0.92396 3.59085,-0.0895 z m 162.10683,-0.77473 c 0.51244,-0.37836 1.38324,-1.62718 2.08927,-2.99625 1.34022,-2.59883 2.08368,-3.39586 5.05553,-5.4198 3.14119,-2.13926 5.18391,-4.74761 6.55031,-8.36409 1.24948,-3.30701 5.43943,-7.91735 7.73489,-8.51095 2.42042,-0.62592 2.56087,-0.69412 2.56087,-1.24352 0,-1.31499 -3.61761,-1.08202 -6.72503,0.4331 -3.8225,1.86378 -11.20673,8.30013 -14.34429,12.50297 -2.8745,3.85047 -4.98172,8.76497 -5.49777,12.82201 -0.16158,1.27029 -0.11872,1.47329 0.3321,1.57284 0.69592,0.15369 1.19941,-0.025 2.24412,-0.79631 z m -4.73771,-2.48546 c 0.29328,-0.79489 0.62391,-1.94489 0.73473,-2.55556 0.9643,-5.31387 6.11801,-12.07417 14.59656,-19.1468 4.14856,-3.46065 5.17926,-4.03767 10.25822,-5.74287 4.2319,-1.42082 5.31922,-2.08815 4.41081,-2.7071 -1.00683,-0.68601 -5.09236,0.30237 -8.81609,2.1328 -5.14378,2.52846 -14.57388,11.0757 -18.113,16.41723 -3.06401,4.62445 -4.72306,8.97501 -4.72306,12.38539 0,1.65067 0.008,1.66728 0.55929,1.16832 0.30762,-0.27838 0.79926,-1.15652 1.09254,-1.95141 z m -231.261694,-0.0461 c 3.36769,-2.1143 6.8391,-5.0846 8.45558,-7.235 1.62281,-2.15882 2.0378,-2.93927 2.38532,-4.48597 l 0.26883,-1.19646 -1.60312,0.18644 c -4.22809,0.49172 -9.17859,4.49579 -11.21509,9.07101 -0.90106,2.02432 -1.60108,5.22826 -1.14231,5.22826 0.19405,0 1.4769,-0.70573 2.85079,-1.56828 z m 0.16976,-2.28375 c 1.74477,-3.99282 3.56133,-6.26629 6.46198,-8.08735 2.94483,-1.84879 2.95841,-1.70312 0.1169,1.25418 -1.56777,1.63166 -3.61768,3.97446 -4.55534,5.20623 -2.29205,3.01095 -2.81046,3.42775 -2.02354,1.62694 z m 218.277064,2.47644 c 1.87419,-0.85436 2.89419,-1.93023 5.36612,-5.66008 2.0396,-3.07751 2.86639,-4.02362 6.07658,-6.95349 3.87375,-3.5355 5.98439,-5.86105 6.73093,-7.4163 0.42005,-0.87508 0.40989,-0.94819 -0.22594,-1.625 -0.36619,-0.38978 -0.78559,-0.70869 -0.93202,-0.70869 -0.14642,0 -0.99343,0.66766 -1.88224,1.48369 -0.90178,0.82794 -3.41657,2.50628 -5.68994,3.79739 -2.24066,1.27253 -4.77338,2.84062 -5.62827,3.48466 -2.22717,1.67783 -3.0333,2.0386 -4.5553,2.0386 -2.36277,0 -3.27547,-0.8259 -7.85794,-7.1106 -1.15391,-1.58256 -2.46906,-3.14158 -2.92255,-3.46449 -1.13055,-0.80502 -3.01322,-0.97714 -4.44069,-0.40598 -0.6314,0.25263 -1.46335,0.45933 -1.84879,0.45933 -0.60969,0 -0.70081,-0.12593 -0.70081,-0.96861 0,-1.04726 0.66433,-1.76138 2.24931,-2.4179 0.60078,-0.24885 0.85939,-0.54916 0.85939,-0.99797 0,-0.82875 -0.54286,-1.02045 -1.88653,-0.66618 -2.48559,0.65534 -5.7439,3.57797 -5.7439,5.15215 0,0.24664 1.55788,2.1436 3.46195,4.21546 2.51173,2.73305 3.99762,4.65501 5.41351,7.00221 5.65776,9.37916 9.98096,12.66552 14.15713,10.7618 z m -63.78704,-2.83355 c 3.01405,-2.06534 4.99593,-4.64836 7.27689,-9.48411 1.56684,-3.32177 1.82393,-4.47288 1.18954,-5.32594 -0.33059,-0.44453 -4.84177,-2.23603 -9.43324,-3.74617 -4.4612,-1.4673 -6.81813,-1.20513 -9.26424,1.03048 -0.82893,0.7576 -1.66031,1.74723 -1.84752,2.19918 -0.43305,1.04549 0.0296,1.99563 2.71665,5.57909 1.0834,1.44483 2.91493,4.50505 4.17087,6.96892 2.55643,5.01512 2.2031,4.826 5.19105,2.77855 z M 69.307246,238.70002 c 0.67798,-0.81692 -1.40289,-6.08907 -2.40331,-6.08907 -0.2266,0 -0.66635,0.25435 -0.97722,0.56522 -1.18085,1.18086 -0.45043,4.23694 1.28627,5.38175 0.99497,0.65588 1.63199,0.6991 2.09426,0.1421 z m -31.37747,-4.60668 c 2.49895,-2.60209 4.25467,-7.03391 3.72337,-9.39856 -0.33278,-1.48109 -0.62594,-1.78571 -1.68944,-1.75548 -2.64013,0.0751 -4.84131,3.37709 -4.84131,7.26249 0,1.39389 0.47565,4.57795 0.75041,5.02329 0.28046,0.45459 0.81705,0.15936 2.05697,-1.13174 z m -0.65634,-2.11826 c 1.08456,-3.78693 2.16611,-6.7079 2.80375,-7.57216 0.38356,-0.51989 0.69738,-0.87353 0.69738,-0.78588 0,0.0876 -0.56761,1.90201 -1.26135,4.0319 -1.07606,3.30367 -2.18108,5.80984 -2.56169,5.80984 -0.0567,0 0.0882,-0.66766 0.32191,-1.4837 z m 65.874104,-0.84782 c -0.37262,-0.50516 -1.16643,-1.74511 -1.76402,-2.75543 -0.59758,-1.01033 -2.029554,-3.08861 -3.182134,-4.61841 -2.40695,-3.19467 -1.91055,-3.24156 1.17719,-0.11119 1.461574,1.48176 2.211974,2.54604 3.038044,4.30882 0.60337,1.28756 1.09704,2.48124 1.09704,2.65263 0,0.17139 0.12717,0.31162 0.2826,0.31162 0.83314,0 -0.20831,-4.90519 -1.45341,-6.84551 -1.39033,-2.16665 -5.270144,-4.84071 -7.927934,-5.46413 -0.76173,-0.17867 -0.76177,-0.1786 -0.46213,0.90788 0.69372,2.51538 3.49551,7.24426 5.72551,9.66352 0.888044,0.96341 3.562334,2.85045 4.061694,2.86602 0.0468,0.001 -0.21983,-0.41066 -0.59245,-0.91582 z m 163.3751,-2.75433 c 1.35361,-0.61432 6.37543,-4.01284 9.73549,-6.58848 1.36726,-1.04808 2.46357,-1.67892 2.91769,-1.67892 1.04644,0 2.99039,1.4885 3.67554,2.8144 l 0.58783,1.13755 2.09695,-1.82631 c 2.02821,-1.76644 4.57906,-3.67153 10.63591,-7.94339 5.55055,-3.91477 8.20196,-7.0388 9.7252,-11.45875 1.16092,-3.3686 1.4437,-6.61665 1.09358,-12.56103 -0.61319,-10.41055 -2.80079,-24.93327 -3.93612,-26.13037 -0.11651,-0.12285 -0.53958,0.27188 -0.94015,0.87718 -0.40057,0.60531 -1.45049,1.8806 -2.33315,2.83398 -5.08835,5.49602 -11.58537,8.11239 -22.25588,8.96249 -2.05049,0.16336 -2.24012,0.2346 -2.88906,1.08541 -0.38199,0.50081 -1.00086,1.72972 -1.37527,2.73091 -0.69374,1.85509 -1.49054,5.83471 -1.222,6.10325 0.0815,0.0815 0.9109,-0.36979 1.84312,-1.00285 3.38636,-2.29963 7.41243,-3.30891 12.18348,-3.05423 5.44328,0.29056 9.99425,2.19128 16.20426,6.76774 l 1.91957,1.41463 -2.20218,1.54179 c -2.92654,2.04893 -7.85355,4.42968 -10.82174,5.22911 -2.08659,0.56198 -3.05192,0.64504 -7.34783,0.63217 -4.41497,-0.0132 -5.41242,-0.11088 -9.29581,-0.91019 -2.3926,-0.49246 -4.44371,-0.83758 -4.55803,-0.76693 -0.4094,0.25303 -1.16666,2.16333 -1.01462,2.55954 0.0982,0.25589 0.56386,0.40413 1.26953,0.40413 1.85271,0 5.44413,0.80148 6.99797,1.5617 1.915,0.93692 3.49227,2.67032 3.49227,3.83795 v 0.87629 l -0.99294,-0.87182 c -1.90818,-1.6754 -4.22961,-2.38258 -7.93118,-2.41607 -2.05243,-0.0186 -2.38218,0.0551 -3.26722,0.73014 -1.15472,0.8807 -2.30201,2.93509 -4.01634,7.19182 -0.68204,1.69351 -2.00928,4.66878 -2.94942,6.61172 -1.93758,4.00425 -2.31733,5.18881 -2.31957,7.23537 -0.004,3.63153 3.69997,5.69944 7.29012,4.07007 z M 214.797,221.08287 c 1.04208,-1.24213 2.11329,-3.66307 2.14431,-4.84613 0.0672,-2.56255 -2.55917,-3.08719 -3.92023,-0.7831 -0.56103,0.94976 -0.92231,4.65867 -0.58479,6.00346 0.16276,0.64851 0.2945,0.72749 0.95372,0.5718 0.42068,-0.0994 1.05383,-0.52506 1.40699,-0.94603 z m 22.9736,-4.65125 c 0.90126,-0.97147 2.27736,-2.21141 3.05801,-2.75544 0.78064,-0.54402 1.42531,-1.16463 1.43259,-1.37914 0.0221,-0.65041 -2.3865,-0.20411 -3.87931,0.71882 -2.14392,1.32548 -4.03871,4.22181 -3.26687,4.99365 0.46316,0.46317 1.12915,0.0675 2.65558,-1.57789 z m 18.32938,0.33916 c 2.33849,-3.2282 4.85691,-12.78529 4.37837,-16.61539 l -0.19045,-1.52434 -2.7187,-1.2543 c -7.92334,-3.65553 -9.96994,-5.19962 -13.04478,-9.84185 -4.54102,-6.85579 -8.95971,-12.11851 -14.07393,-16.76225 -5.48,-4.97585 -7.1571,-6.08464 -7.57118,-5.00554 -0.30301,0.78962 4.80403,9.21866 13.27441,21.90909 6.92388,10.37344 11.1217,17.12433 15.16419,24.38687 1.7875,3.21134 3.40816,5.84182 3.60148,5.84552 0.19332,0.004 0.72458,-0.50832 1.18059,-1.13781 z M 40.206206,214.91621 c 2.40695,-0.96308 1.74178,-2.5616 -2.45203,-5.89264 -1.57277,-1.24921 -3.60316,-2.87566 -4.51198,-3.61433 -1.57784,-1.28242 -3.34463,-2.1459 -3.68807,-1.80246 -0.33399,0.33399 0.56206,3.78863 1.48345,5.7193 2.30062,4.82069 5.78387,6.94444 9.16863,5.59013 z m -1.94374,-1.80582 c -1.70847,-0.58316 -2.683,-1.11061 -3.48833,-1.88802 -1.0599,-1.02316 -2.75208,-3.58794 -2.75779,-4.17991 -0.002,-0.15126 0.85578,0.57315 1.90496,1.60982 1.07987,1.06698 3.12918,2.62719 4.72286,3.59568 1.5484,0.94096 2.62937,1.70202 2.40218,1.69125 -0.2272,-0.0108 -1.47994,-0.38374 -2.78388,-0.82882 z m 193.213704,1.9571 c 0.48017,-0.16738 1.22575,-0.77146 1.65685,-1.34239 1.44634,-1.91546 3.58296,-4.0227 5.3764,-5.30247 2.45327,-1.75062 2.95974,-2.89954 1.79264,-4.06664 -1.13099,-1.13099 -4.09041,0.18191 -7.03579,3.12132 -3.10728,3.10097 -4.66501,6.33314 -3.57672,7.42143 0.55785,0.55786 0.64644,0.56622 1.78662,0.16875 z m -6.81414,-3.44022 c 0.31519,-0.34973 1.7006,-2.28913 3.07869,-4.30978 1.79135,-2.6266 3.45469,-4.62076 5.83489,-6.99542 1.83109,-1.82684 3.32926,-3.38145 3.32926,-3.4547 0,-0.31496 -1.74134,-0.99552 -2.54723,-0.99552 -2.70823,0 -7.51794,4.11009 -9.42645,8.05528 -0.60129,1.24296 -1.33254,2.9475 -1.625,3.78787 -1.13548,3.26274 -0.28096,5.72845 1.35584,3.91227 z m -44.51911,-1.46065 c 1.65537,-0.23349 4.3896,-0.73696 6.07609,-1.11882 5.63437,-1.27578 14.46513,-2.15825 22.49043,-2.24753 4.63445,-0.0515 5.31066,0.10796 6.99979,1.65113 0.89271,0.81557 2.82751,2.11609 3.14813,2.11609 0.65016,0 0.0909,-1.56713 -1.31117,-3.67391 -0.99213,-1.49082 -1.55435,-2.63285 -1.55435,-3.15734 0,-1.34173 1.04321,-2.99301 3.15455,-4.99328 1.09257,-1.03509 2.29538,-2.48801 2.67293,-3.22871 0.98535,-1.93316 1.60628,-4.5862 1.39707,-5.96921 -0.45207,-2.98844 -1.30136,-2.37418 -3.80208,2.74992 -1.65319,3.38748 -2.30151,4.39761 -3.96717,6.18118 -2.01818,2.16105 -3.36006,3.04788 -4.61181,3.04788 -1.94959,0 -2.19159,-2.9524 -0.47445,-5.78841 1.53734,-2.53907 4.66339,-5.97102 8.36608,-9.18475 1.88361,-1.63487 3.64483,-3.40776 3.91383,-3.93976 0.65801,-1.30132 0.44481,-5.16217 -0.40921,-7.4106 -0.79688,-2.09797 -2.05692,-3.80644 -2.93052,-3.97344 -0.68458,-0.13087 -3.13198,0.39182 -12.21139,2.60794 -6.15409,1.50211 -9.02982,2.91231 -11.36071,5.57107 -0.95162,1.08547 -3.17351,4.43881 -5.14187,7.76023 -3.88396,6.55383 -5.32084,8.23896 -6.8954,8.08668 -0.85938,-0.0831 -0.90503,-0.14623 -0.88096,-1.21809 0.0191,-0.85313 0.42729,-1.78901 1.66382,-3.81521 3.61295,-5.92028 4.78218,-9.17301 3.68995,-10.26524 -0.6082,-0.60821 -0.93729,-0.59539 -2.04436,0.0796 -1.31309,0.80064 -3.07878,3.18157 -5.99077,8.07822 -2.50856,4.21827 -5.05845,7.47695 -5.85064,7.47695 -0.69085,0 -0.44301,-1.55058 0.59357,-3.71356 1.09688,-2.28879 1.27959,-3.97533 0.52142,-4.81309 -1.08838,-1.20265 -2.7601,-0.25399 -4.04785,2.29705 -1.08071,2.14087 -3.27073,4.50102 -5.63509,6.07284 -1.75641,1.16766 -2.25358,1.33918 -6.12502,2.11306 -2.31739,0.46323 -7.07485,1.17554 -10.57213,1.5829 -11.77358,1.37138 -15.89393,2.46339 -18.08169,4.79215 -0.3668,0.39044 -0.60245,0.77435 -0.52367,0.85313 0.0788,0.0788 1.84912,0.27372 3.93408,0.43321 7.46454,0.57097 12.78494,1.39871 20.74736,3.22784 4.35217,0.99978 8.48532,1.9474 9.18478,2.10582 1.75014,0.3964 12.14315,0.15147 15.86843,-0.37397 z m 20.77647,-13.63535 c -0.70162,-0.70162 0.29721,-2.81368 3.31259,-7.00466 1.12367,-1.56174 2.76509,-4.11128 3.64759,-5.66562 2.8127,-4.954 5.11453,-7.45274 6.53664,-7.09581 0.39636,0.0995 0.93831,0.51305 1.20433,0.91905 0.45665,0.69693 0.45642,0.84209 -0.004,2.59788 -0.78367,2.98792 -2.73981,5.9765 -6.50451,9.93757 -5.66995,5.96569 -6.26003,6.49999 -7.17857,6.49999 -0.45407,0 -0.91036,-0.0848 -1.01398,-0.1884 z m -7.32427,-2.42462 c -1.13316,-0.37933 -1.01477,-1.32242 0.59864,-4.76888 0.7567,-1.61641 1.84893,-4.20939 2.42719,-5.7622 1.47547,-3.96211 2.10496,-4.53133 5.77471,-5.22184 1.04138,-0.19594 1.86848,-0.19371 2.61413,0.007 0.9873,0.26585 1.09075,0.3825 1.09075,1.22985 0,1.63113 -0.76379,2.84972 -6.14698,9.8072 -3.64306,4.70846 -4.48869,5.3347 -6.35844,4.70879 z M 45.127136,207.06474 c 3.69057,-1.54202 1.57027,-6.55122 -4.77649,-11.28441 -2.35769,-1.75829 -6.67432,-4.01288 -8.2813,-4.32536 -0.91171,-0.17728 -0.92899,-0.16249 -0.7409,0.63399 0.63377,2.68384 2.01253,6.43834 2.95396,8.04395 2.04222,3.48297 4.88231,6.03475 7.69427,6.91319 1.56703,0.48952 2.0171,0.49219 3.15046,0.0186 z m -0.57082,-1.53857 c -1.07015,-0.77521 -7.86697,-7.7967 -9.19894,-9.50301 -0.50077,-0.64149 0.0484,-0.35972 2.3434,1.2025 4.70965,3.20581 6.91533,5.42748 8.0249,8.08306 0.51372,1.22951 0.28616,1.27182 -1.16936,0.21745 z m 43.16334,0.79703 c 1.87072,-0.35364 4.0374,-1.39502 4.14742,-1.9934 0.0487,-0.26494 -0.63542,-1.00629 -1.6952,-1.83695 -2.57726,-2.0201 -5.7617,-5.10443 -7.20262,-6.97617 -1.65368,-2.14812 -3.56504,-5.80886 -4.31505,-8.26439 -1.01307,-3.3168 -1.05671,-8.8116 -0.10157,-12.78804 0.13855,-0.57679 0.0504,-0.63586 -0.94895,-0.63586 -2.12356,0 -7.25171,-1.83902 -7.85637,-2.81739 -0.27952,-0.45227 1.35717,-2.60896 3.40147,-4.4822 1.02974,-0.94357 1.78823,-1.85154 1.68553,-2.01772 -0.1027,-0.16617 -0.79704,-0.6114 -1.54296,-0.98938 -1.65131,-0.83679 -2.57998,-1.90272 -3.84334,-4.41142 -0.53006,-1.05256 -1.09409,-1.9943 -1.25339,-2.09275 -0.15931,-0.0985 -0.28965,-0.30365 -0.28965,-0.45598 0,-0.41971 3.86893,-2.18538 5.23868,-2.39079 l 1.20489,-0.18068 -0.58083,-1.31308 c -1.26876,-2.86823 -1.4039,-3.87942 -1.54679,-11.57361 l -0.13801,-7.43154 0.80777,0.19442 c 1.49049,0.35873 6.16716,1.99865 7.16646,2.51299 1.37696,0.70872 4.04451,2.53717 4.49707,3.08248 0.7495,0.90308 1.15528,0.54025 1.15199,-1.03007 -0.006,-3.03061 -0.21698,-3.56206 -1.71199,-4.31963 -0.74448,-0.37726 -1.4356,-0.81862 -1.53584,-0.9808 -0.38678,-0.62583 0.22783,-1.97042 1.48234,-3.24291 l 1.30862,-1.32737 -0.61754,-3.86083 c -0.33965,-2.12346 -0.75379,-5.06899 -0.92031,-6.54562 -0.48494,-4.30031 -2.10016,-10.1739 -2.79778,-10.1739 -0.16649,0 -1.49454,1.81222 -2.95123,4.02717 -8.50778,12.93636 -15.06141,29.19733 -18.02453,44.72279 -0.58602,3.07051 -0.64015,4.07255 -0.57222,10.59319 l 0.075,7.20189 1.16487,1.96077 c 1.75305,2.95081 4.64763,8.88413 7.87171,16.13543 3.72866,8.38613 4.04166,8.99093 5.4361,10.50371 1.35189,1.46663 2.14683,1.92592 4.87197,2.81483 2.21419,0.72225 6.22874,0.89426 8.93425,0.38281 z m -31.41247,-2.37674 c 0.25882,-0.48361 0.23404,-2.38387 -0.11026,-8.45472 -0.50707,-8.94097 -0.58097,-22.29862 -0.15434,-27.8949 1.50383,-19.72607 6.92128,-36.16466 18.20108,-55.22898 1.46924,-2.4832 2.64513,-4.54111 2.6131,-4.57314 -0.032,-0.032 -1.33523,0.36951 -2.896,0.8923 -3.97094,1.33009 -7.43924,1.94078 -9.871,1.73806 -2.00159,-0.16686 -4.78028,-0.96821 -5.77626,-1.66583 -0.53565,-0.37518 -0.53539,-0.39879 0.0178,-1.63436 0.30871,-0.68953 0.75334,-1.4659 0.98807,-1.72527 0.23473,-0.25938 0.32312,-0.53529 0.19642,-0.61315 -0.12671,-0.0779 -1.62928,-0.2293 -3.33906,-0.33655 l -3.1087,-0.195 -1.73287,2.92263 c -11.77255,19.85524 -19.0071,41.33634 -21.57072,64.04856 -0.62354,5.52414 -1.20773,15.93354 -0.90851,16.18823 0.10471,0.0891 1.77614,0.51685 3.71429,0.95048 6.48546,1.45103 9.85252,2.80396 12.44895,5.00215 1.55212,1.31406 5.88234,6.87696 7.35035,9.44279 1.36457,2.38502 3.01466,2.86135 3.93766,1.1367 z m 9.95669,0.82011 c 0.0818,-0.0818 -0.58536,-1.63969 -1.48261,-3.46195 -2.19106,-4.44994 -2.96672,-6.81413 -3.77589,-11.50885 -0.37507,-2.17609 -0.6546,-3.98426 -0.62119,-4.01816 0.0334,-0.0339 0.64816,1.30142 1.36611,2.96739 1.21494,2.81922 2.1586,5.70958 4.10229,12.56501 0.42936,1.51436 0.8616,2.7543 0.96052,2.75543 0.33131,0.004 0.56651,-2.54602 0.38534,-4.1774 -0.48391,-4.35736 -1.02814,-6.32262 -2.9395,-10.61482 -2.3821,-5.34934 -5.2833,-10.37782 -5.72987,-9.93125 -0.18466,0.18466 -0.0161,10.06202 0.20499,12.00814 0.31577,2.78022 0.91076,4.79389 2.1133,7.15222 2.27443,4.46044 4.56789,7.11286 5.41651,6.26424 z m 58.162814,-4.1293 c 0.54402,-0.33112 1.69377,-1.15513 2.555,-1.83114 1.85067,-1.45265 2.7091,-1.67387 4.91392,-1.26628 3.21479,0.59428 3.73114,-0.17758 1.93915,-2.89869 -0.818,-1.24212 -1.24795,-1.62947 -1.95617,-1.76233 -1.81936,-0.34131 -2.4773,0.0611 -6.33361,3.87405 -3.06881,3.03429 -3.65013,3.73812 -3.36815,4.07789 0.47,0.56631 1.08895,0.51307 2.24986,-0.1935 z m -35.035624,-5.2475 c -1.94896,-2.21414 -3.62821,-5.19824 -4.97521,-8.84116 -0.7035,-1.9026 -1.23192,-3.50644 -1.17427,-3.56409 0.0576,-0.0576 0.97244,1.45129 2.03286,3.35321 1.06043,1.90192 2.64127,4.72954 3.51298,6.28361 0.87171,1.55406 1.68304,3.06682 1.80296,3.36168 0.45819,1.12666 0.49056,0.15761 0.0638,-1.90872 -0.82447,-3.99149 -2.90713,-8.26712 -5.76463,-11.83457 -1.84066,-2.29797 -3.05511,-3.50019 -3.29424,-3.26106 -0.41277,0.41277 -0.42173,3.36095 -0.016,5.276 0.78372,3.69945 3.10099,7.49473 6.61856,10.84001 2.05992,1.95902 2.82432,2.14805 1.19327,0.29509 z m 61.535814,-2.49605 c 2.78418,-2.95757 4.19991,-7.15763 2.76642,-8.20717 -0.82986,-0.6076 -2.28207,-0.49738 -3.08617,0.23422 -1.16925,1.06383 -3.82851,5.3085 -4.33766,6.92369 -0.52661,1.67061 -0.3775,2.22336 0.75464,2.79749 1.0461,0.5305 2.27644,-0.0206 3.90277,-1.74823 z m 141.04414,0.86603 c 3.92602,-0.77173 8.62371,-2.70235 8.02713,-3.29892 -0.49598,-0.49599 -5.24689,-2.27472 -7.92224,-2.96608 -3.31545,-0.85676 -7.8983,-1.17629 -9.85979,-0.68743 -3.25502,0.81123 -7.9667,3.84299 -8.37017,5.38583 -0.23073,0.88233 0.22311,0.93298 1.69504,0.18917 3.09472,-1.56386 8.92872,-3.06306 11.88763,-3.05484 2.18725,0.006 6.27143,0.55097 6.64702,0.88682 0.12383,0.11073 -1.08432,0.28186 -2.68478,0.38028 -1.60047,0.0984 -4.11809,0.4426 -5.59472,0.76483 -3.51815,0.76775 -7.49866,1.5847 -8.86039,1.8185 -0.59876,0.1028 -1.0188,0.25676 -0.93342,0.34214 0.0854,0.0854 1.21114,0.32753 2.5017,0.53812 3.01367,0.49175 10.26459,0.33107 13.46699,-0.29842 z m -30.65056,-0.10015 c 0.0795,-0.12869 -0.80159,-0.77233 -1.95806,-1.43031 -2.26241,-1.28722 -3.81841,-2.47892 -6.49015,-4.97063 l -1.69565,-1.5814 2.01965,0.98829 c 2.01788,0.98742 4.57923,2.94529 7.37708,5.63897 1.20533,1.16045 1.4837,1.32138 1.4837,0.85773 0,-1.92176 -3.04874,-5.50909 -6.42504,-7.56008 -3.32479,-2.0197 -8.56246,-3.6731 -8.547,-2.69807 0.0113,0.71131 1.13765,2.90156 2.24953,4.37424 1.78703,2.36691 5.95064,5.1778 9.1837,6.2 1.34829,0.42628 2.60074,0.5073 2.80224,0.18126 z m -27.45363,-0.65147 c 1.10734,-0.27873 1.34731,-0.78496 0.64745,-1.3658 -0.77004,-0.63908 -3.8268,0.60174 -3.8268,1.55339 0,0.46461 0.7684,0.41927 3.17935,-0.18759 z m -95.36688,-5.54388 c -0.11546,-4.41599 -0.12778,-4.48786 -1.56276,-9.11413 -1.98567,-6.40162 -2.61001,-8.97733 -2.81247,-11.60282 -0.15092,-1.95709 -0.11408,-2.24499 0.2873,-2.24499 0.27355,0 0.5279,0.31542 0.6267,0.77717 1.02108,4.772 7.78469,19.87972 9.35913,20.90523 0.58117,0.37855 0.6725,0.31055 1.78694,-1.33054 1.80173,-2.65316 2.077,-3.46637 1.57781,-4.66111 -0.22593,-0.54073 -0.98778,-1.6 -1.69299,-2.35393 -0.70522,-0.75394 -1.63484,-2.12375 -2.06584,-3.04403 -0.71993,-1.53724 -0.78362,-1.94887 -0.78362,-5.06454 0,-2.81005 0.11198,-3.71537 0.65331,-5.28208 0.87285,-2.52616 2.56611,-5.09891 4.67729,-7.10672 l 1.73461,-1.64968 -3.25452,0.18233 c -1.82045,0.10199 -4.59851,0.0456 -6.3046,-0.12793 l -3.05007,-0.31025 -1.42898,1.28478 c -1.65411,1.48718 -3.88975,2.26487 -7.29877,2.53894 -1.84835,0.1486 -2.22566,0.27623 -2.94869,0.99747 -0.80236,0.80036 -0.83315,0.93206 -0.95361,4.07893 -0.30441,7.95274 1.30307,14.74048 4.59037,19.38333 0.93546,1.3212 2.59403,3.29896 3.68572,4.39503 1.8484,1.85581 4.42247,3.80062 5.03036,3.80062 0.15704,0 0.21668,-1.80093 0.14738,-4.45108 z m 23.35537,2.47856 c 4.64981,-1.57173 5.59459,-2.45316 6.62846,-6.18401 0.46124,-1.66443 0.83247,-2.35388 1.85748,-3.44971 0.70458,-0.75324 1.28105,-1.57411 1.28105,-1.82414 0,-1.36741 -1.44452,-2.2003 -3.06741,-1.76862 -1.25349,0.33343 -4.71736,3.80709 -6.41824,6.43639 -2.13186,3.29551 -3.90504,7.63218 -3.12067,7.63218 0.19147,0 1.46917,-0.37894 2.83933,-0.84209 z m 68.95328,-0.44984 c 0.59281,-0.59281 0.55136,-1.97712 -0.1023,-3.41675 -0.64044,-1.4105 -3.2128,-4.16063 -3.74124,-3.99978 -0.67061,0.20414 -1.6542,2.62114 -1.82726,4.49018 -0.23922,2.58362 0.10712,2.81962 4.89363,3.33461 0.18319,0.0197 0.53292,-0.164 0.77717,-0.40826 z m -105.98824,-2.5464 c 0.0944,-0.24587 0.16996,-1.67657 0.16803,-3.17935 -0.003,-2.03896 -0.18273,-3.37775 -0.70979,-5.27579 -0.38845,-1.39892 -0.83677,-3.35304 -0.99627,-4.34249 -0.3569,-2.21413 -3.04349,-9.08142 -3.55279,-9.08142 -0.94277,0 -1.92075,5.72501 -1.73798,10.17391 0.11338,2.75971 0.24189,3.46316 0.85186,4.66304 1.2394,2.43802 5.02035,7.48912 5.6059,7.48912 0.10973,0 0.27669,-0.20116 0.37104,-0.44702 z m -30.774094,-2.09645 c -0.0961,-0.15544 -0.04,-0.28261 0.12463,-0.28261 0.51852,0 0.33664,-3.29679 -0.28505,-5.16652 -0.80875,-2.43235 -2.54887,-5.28297 -4.35285,-7.13072 -1.53946,-1.5768 -3.9643,-2.95579 -5.20645,-2.96086 -0.66999,-0.003 -0.67482,0.0182 -0.52131,2.25789 0.11729,1.71116 0.36721,2.71425 1.02821,4.12677 1.46984,3.14097 4.43524,6.49072 7.60414,8.58971 1.29841,0.86003 1.92695,1.08131 1.60868,0.56634 z m -0.94166,-1.67162 c -0.34006,-0.60504 -1.75458,-2.69918 -3.14339,-4.65364 -2.90189,-4.0838 -4.14338,-6.10952 -3.7443,-6.10952 0.56803,0 4.75781,4.75699 5.61673,6.37712 0.8501,1.6035 2.17166,5.20369 1.98038,5.39497 -0.0501,0.0501 -0.36937,-0.40389 -0.70942,-1.00893 z m 170.923134,-3.34468 c -0.0155,-0.43551 -6.18077,-6.9003 -9.17878,-9.62474 -2.66759,-2.42417 -3.64455,-3.46159 -5.31621,-5.64521 -0.29907,-0.39066 5.84702,3.47855 7.37316,4.6417 1.93886,1.4777 3.26842,3.21243 5.47566,7.14432 1.43161,2.55021 1.67589,2.44197 0.93264,-0.41322 -1.33613,-5.13273 -5.61369,-10.61103 -10.03581,-12.85295 -1.83087,-0.92821 -6.99517,-3.10315 -7.3683,-3.10315 -0.45188,0 0.0765,1.48111 1.66175,4.6583 3.12732,6.26776 5.23426,8.44473 12.9901,13.42186 3.03761,1.94932 3.48013,2.17571 3.46579,1.77309 z m -108.45936,-2.20846 c 4.16639,-1.38753 4.65138,-2.53014 1.67677,-3.95039 -2.73896,-1.30773 -3.40793,-2.49278 -2.45138,-4.34255 0.57243,-1.10696 1.80413,-1.54713 3.81818,-1.3645 2.29775,0.20835 4.18828,1.31297 6.5196,3.80932 1.06175,1.13691 2.29926,2.19567 2.75003,2.35281 1.85883,0.64799 3.21588,-0.86566 3.21588,-3.58699 0,-2.1087 -0.23947,-3.04904 -1.32974,-5.22152 -1.7383,-3.46374 -5.01601,-6.37727 -8.09709,-7.19744 -6.65642,-1.77192 -14.01669,2.32404 -16.0781,8.94739 -0.68392,2.19743 -0.67603,3.53381 0.032,5.42633 1.17556,3.14197 3.62866,5.01508 7.62721,5.82391 0.0772,0.0156 1.11965,-0.29775 2.31659,-0.69637 z m 95.17593,-1.46545 c -2.61279,-4.3992 -4.18444,-7.30462 -5.0742,-9.38038 -1.35046,-3.15052 -3.27186,-9.27843 -2.99517,-9.55247 0.11877,-0.11763 1.44437,-0.20019 2.94577,-0.18347 2.81751,0.0314 5.22533,0.53045 9.34816,1.93758 1.15315,0.39356 2.14729,0.66491 2.20922,0.60298 0.44539,-0.44539 -6.15851,-11.61298 -8.87357,-15.00574 -3.19961,-3.99826 -9.86118,-10.84417 -11.03731,-11.34275 -2.09396,-0.88766 -7.69536,-0.31462 -12.3732,1.26581 -2.13879,0.7226 -2.28346,0.82453 -2.67925,1.88778 -0.55147,1.48146 -0.48944,6.80508 0.11683,10.02611 1.34972,7.17093 3.39255,12.93799 5.94518,16.7837 3.34444,5.03861 9.12886,9.46484 15.61125,11.94571 2.22509,0.85156 6.20319,2.02545 6.96324,2.05476 0.48802,0.0188 0.48097,-0.0497 -0.10695,-1.03962 z m 29.78168,-8.9431 c 2.87211,-1.57842 3.8011,-1.78607 14.03102,-3.13627 l 0.98913,-0.13055 -1.24341,0.56515 c -0.68388,0.31084 -3.29094,1.2682 -5.79348,2.12747 -3.21322,1.10329 -5.671,2.1806 -8.36528,3.66672 -2.09836,1.15743 -3.94238,2.15095 -4.09782,2.20783 -0.86386,0.31611 0.45317,0.36878 4.12174,0.16483 2.97405,-0.16535 4.62657,-0.39808 5.93478,-0.83582 4.36216,-1.45965 10.02711,-5.20971 12.39481,-8.20508 0.63057,-0.79773 1.14648,-1.54273 1.14648,-1.65558 0,-0.28959 -6.68109,-0.8784 -9.8913,-0.87173 -1.47663,0.003 -3.47866,0.19276 -4.44896,0.42154 -6.41395,1.51229 -12.50755,6.7984 -12.50755,10.85013 v 1.2047 l 2.99615,-2.70922 c 1.64788,-1.49007 3.77804,-3.13892 4.73369,-3.66412 z m -87.50608,3.38717 c 2.36488,-0.86897 4.42222,-1.57994 4.57187,-1.57994 0.14965,0 0.54925,-0.34973 0.888,-0.77717 0.5263,-0.66412 0.59465,-1.02385 0.46981,-2.47283 -0.39985,-4.641 -4.8986,-14.18487 -9.70548,-20.58967 -3.97414,-5.29523 -8.62114,-9.49257 -13.21531,-11.93653 -1.33553,-0.71046 -2.42823,-1.20603 -2.42823,-1.10127 0,0.10476 1.63407,2.18174 3.63127,4.61551 7.76418,9.46133 11.5905,14.85338 14.04356,19.79014 1.60111,3.22221 2.57117,6.79012 2.27296,8.36003 -0.29855,1.5717 -1.88126,3.07984 -3.8469,3.66564 -2.17105,0.64702 -6.7137,1.09694 -9.65534,0.9563 -2.83041,-0.13533 -2.9943,0.0197 -1.52573,1.44308 1.29241,1.25266 2.20818,1.43684 6.52582,1.31247 3.6487,-0.10509 3.70342,-0.11666 7.9737,-1.68576 z M 78.948196,170.2752 c 0.45449,-0.43543 0.82634,-0.86952 0.82634,-0.96465 0,-0.30492 -1.84404,-0.85173 -2.87235,-0.85173 -1.02982,0 -3.36855,1.05967 -3.55175,1.60929 -0.16173,0.48517 2.18735,1.21355 3.54884,1.10039 0.86339,-0.0718 1.46534,-0.3342 2.04892,-0.8933 z m 130.543654,-2.39655 c 6.17078,-0.97627 11.02173,-2.19992 11.02173,-2.78023 0,-0.71636 -6.13659,-9.41156 -12.08849,-17.12871 -4.45291,-5.77358 -15.19933,-15.57291 -18.09179,-16.49734 -4.20264,-1.34318 -6.02208,-1.75267 -7.82755,-1.7617 -1.92507,-0.01 -3.53812,0.35604 -3.5332,0.80097 10e-4,0.12042 0.85975,0.75002 1.9076,1.3991 3.6652,2.27035 9.62239,8.18112 13.79957,13.692 2.57683,3.39958 4.62836,6.57211 7.34216,11.35408 3.01906,5.31985 3.84026,8.37331 2.79538,10.3939 -0.49185,0.95113 -0.36312,1.38643 0.36509,1.23459 0.27185,-0.0567 2.21113,-0.37468 4.3095,-0.70666 z m 59.34462,-2.78284 c 0.15544,-0.55958 0.28333,-1.93019 0.2842,-3.04579 10e-4,-1.76549 -0.12515,-2.2715 -0.97618,-3.90422 -0.53777,-1.03172 -1.60942,-2.67963 -2.38146,-3.66202 -3.78571,-4.81722 -5.20995,-9.73615 -4.55153,-15.71971 0.28299,-2.5718 1.21118,-6.93899 1.54593,-7.27374 0.18906,-0.18906 3.48448,1.02597 4.66916,1.72153 1.68849,0.99136 3.39673,2.4847 4.15778,3.63471 0.4011,0.60612 0.76256,1.06765 0.80324,1.02563 0.0407,-0.042 0.27752,-1.25914 0.52629,-2.70471 0.56765,-3.29847 1.37764,-4.90356 3.73619,-7.40375 1.19166,-1.26323 1.69913,-1.9788 1.40333,-1.9788 -0.25486,0 -1.82814,0.43752 -3.49619,0.97227 -7.17187,2.29919 -17.65859,4.30427 -26.60127,5.08623 -2.70396,0.23644 -4.97262,0.48621 -5.04146,0.55505 -0.0688,0.0688 1.06251,1.42009 2.51412,3.00276 5.34815,5.83105 7.09619,7.7995 8.27506,9.31846 2.74894,3.54197 8.66228,12.9028 12.17699,19.2762 1.57054,2.84794 1.69844,2.99945 2.17102,2.57177 0.27619,-0.24995 0.62934,-0.91229 0.78478,-1.47187 z m -79.11728,0.10788 c 1.16449,-0.60219 1.30626,-1.52736 0.55316,-3.60987 -0.96237,-2.66117 -1.64307,-3.69968 -7.63339,-11.64585 -8.72825,-11.57803 -10.55393,-13.84204 -15.821,-19.61947 -4.32967,-4.74921 -5.18892,-5.55333 -6.89887,-6.45624 -1.07428,-0.56725 -2.60036,-1.68971 -3.3913,-2.49437 -1.71148,-1.74115 -3.42326,-2.94077 -4.19629,-2.94077 -0.78977,0 -2.94282,1.34876 -4.30164,2.69473 -1.10568,1.09523 -1.84232,2.72021 -1.84232,4.06404 0,0.97924 0.78487,2.23763 1.6864,2.70383 1.29596,0.67017 1.4813,0.52184 0.86282,-0.69048 -0.86463,-1.69481 -0.7422,-2.15641 1.02133,-3.85088 1.90146,-1.827 2.59449,-1.92561 4.30325,-0.61231 2.09257,1.60829 1.73635,3.08863 -0.84246,3.501 -0.60311,0.0964 -1.09656,0.28334 -1.09656,0.41532 0,0.47479 1.32162,1.09036 3.17513,1.47889 2.24864,0.47135 4.13022,1.60956 6.09495,3.68698 2.53295,2.67822 4.95658,7.08928 8.55827,15.57625 2.25109,5.30444 3.67533,7.84764 6.04964,10.80254 2.02978,2.52612 5.65248,5.95064 6.87033,6.49448 0.41939,0.18729 1.3984,0.35893 2.17557,0.38144 0.77717,0.0225 1.73098,0.14273 2.11956,0.26718 1.09469,0.35058 1.65436,0.31848 2.55342,-0.14644 z M 89.256836,165.09166 c -0.0879,-0.14216 -0.0212,-0.30466 0.14818,-0.36111 0.40364,-0.13455 0.40201,-5.39768 -0.002,-7.90058 -0.48895,-3.02577 -1.64835,-6.68964 -3.00259,-9.48862 -2.13958,-4.42212 -5.69779,-7.58962 -8.7397,-7.78003 -1.03184,-0.0646 -1.13042,-0.006 -1.30449,0.77796 -0.36441,1.64084 -0.25414,5.82771 0.20687,7.85461 1.32763,5.83714 5.33637,11.84572 10.53119,15.78491 1.68858,1.28043 2.53603,1.71644 2.16299,1.11286 z m -3.60501,-6.61994 c -1.81912,-3.28915 -3.68808,-6.8792 -4.15324,-7.97789 -0.87295,-2.06186 -2.15324,-6.56957 -1.92946,-6.79335 0.40368,-0.40368 2.55015,3.43566 5.16657,9.24135 1.30778,2.90186 4.46155,11.27695 4.30449,11.43089 -0.0445,0.0436 -1.56924,-2.61186 -3.38836,-5.901 z m -7.85555,3.0259 c 0,-1.49876 -0.92104,-2.77519 -2.6097,-3.61668 -1.51626,-0.75559 -3.04247,-0.95953 -3.04247,-0.40655 0,1.17466 3.83847,5.04966 5.00206,5.04966 0.55908,0 0.65011,-0.14373 0.65011,-1.02643 z M 301.4695,158.49687 c -0.95158,-4.42235 -5.69718,-17.37688 -6.17629,-16.86 -0.0589,0.0635 -0.38251,1.12711 -0.71924,2.36358 -1.10413,4.05444 -2.23525,5.82451 -6.19347,9.69208 l -3.54309,3.46195 h 4.25834 c 3.5596,0 4.69325,0.11068 6.90872,0.6745 1.4577,0.37097 3.09547,0.8693 3.63949,1.10738 0.54402,0.23809 1.22179,0.44326 1.50615,0.45594 0.43775,0.0195 0.48672,-0.11776 0.31939,-0.89543 z m -81.09412,-3.3913 c -0.57201,-2.44158 -1.28276,-6.45042 -1.57832,-8.90216 -0.19206,-1.59321 -0.45134,-2.89674 -0.57617,-2.89674 -0.34592,0 -1.73633,2.50107 -2.27502,4.09232 l -0.479,1.41493 0.83356,1.55615 c 1.04706,1.95472 3.54973,5.37137 3.93448,5.37137 0.15919,0 0.2224,-0.28614 0.14047,-0.63587 z m 62.2114,-4.88387 c 4.17119,-3.90357 5.22281,-4.74415 6.71551,-5.36784 l 1.07355,-0.44856 -0.94746,1.32133 c -1.49344,2.08276 -7.30269,7.11658 -10.16227,8.80577 -1.38846,0.82018 -0.90852,0.92362 1.10614,0.23839 4.55403,-1.54892 7.19053,-3.54385 9.64376,-7.29703 1.54021,-2.35635 2.73053,-4.65872 2.51828,-4.87097 -0.37834,-0.37835 -3.95133,1.12858 -7.06596,2.98011 -2.56639,1.52563 -3.72968,2.4304 -5.25961,4.09077 -1.86579,2.02487 -3.13984,3.96524 -3.60108,5.48442 -0.18783,0.61864 -0.0796,0.57569 1.06843,-0.42392 0.70258,-0.61176 2.9124,-2.64237 4.91071,-4.51247 z m -117.18186,4.10118 c 0,-0.54601 -2.91535,-3.66839 -3.42516,-3.66839 -0.62413,0 -3.07552,1.18768 -4.26211,2.06497 -1.36253,1.00736 -1.01763,1.20752 2.10575,1.22207 1.93004,0.009 3.22683,0.15579 3.88587,0.43989 0.96982,0.41806 1.69565,0.393 1.69565,-0.0585 z m 103.61814,-3.44783 c -0.39546,-0.9885 -1.10624,-3.89061 -1.5795,-6.44913 -0.47326,-2.55852 -0.91941,-4.96979 -0.99143,-5.35838 -0.072,-0.38859 0.36153,0.30634 0.96348,1.54429 0.8442,1.73617 1.27576,3.20623 1.88746,6.42934 0.43616,2.2982 0.87171,4.17854 0.96788,4.17854 0.23906,0 0.81387,-1.98246 1.11975,-3.86187 0.35114,-2.15746 -0.0549,-4.00868 -1.54161,-7.02931 -1.2749,-2.59021 -4.31303,-6.34794 -5.13232,-6.34794 -0.31235,0 -0.39887,0.52462 -0.39887,2.41869 0,4.02604 0.72368,7.77483 2.17272,11.25495 0.76017,1.8257 2.90222,5.36734 3.11661,5.15295 0.0742,-0.0742 -0.18871,-0.94363 -0.58417,-1.93213 z m -119.38451,-1.61678 c 3.03689,-0.71096 5.89146,-2.02102 6.82741,-3.13333 0.83236,-0.98921 0.85673,-1.12688 0.45523,-2.57233 -0.22487,-0.80955 -0.64628,-1.26326 -1.99909,-2.15228 -1.20803,-0.79388 -1.98347,-1.57578 -2.62625,-2.64812 -1.0073,-1.68045 -2.35522,-2.39327 -4.02867,-2.13046 -1.32227,0.20765 -5.21095,2.08044 -6.1339,2.95409 -1.76235,1.66821 -4.14139,5.88449 -4.14139,7.33962 0,0.93721 0.80999,1.81095 2.26289,2.44101 1.47689,0.64046 6.45091,0.58841 9.38377,-0.0982 z m 129.87254,-7.98545 c 1.62029,-1.89821 2.80144,-3.63672 3.46703,-5.10302 0.60274,-1.32785 0.66991,-2.82965 0.37328,-8.34625 l -0.18387,-3.4197 -1.05613,0.53879 c -1.96502,1.00248 -4.54069,5.41434 -5.60638,9.60316 -0.63445,2.4938 -1.00009,6.60681 -0.68234,7.67548 0.18973,0.63807 0.59887,-0.25811 2.7095,-5.93478 l 2.48603,-6.68634 -0.13777,2.68478 c -0.18755,3.65469 -1.25616,6.88688 -3.45434,10.44822 l -0.77984,1.26346 0.82151,-0.64621 c 0.45183,-0.35541 1.37133,-1.29032 2.04332,-2.07759 z m 4.10189,1.56888 c 1.12302,-0.56659 3.67114,-1.52259 5.66248,-2.12442 3.83204,-1.15814 4.99894,-1.72544 4.99894,-2.43028 0,-1.15893 -8.13658,-15.89336 -8.77656,-15.89336 -0.53249,0 -0.59508,2.19914 -0.16024,5.63019 0.2522,1.98993 0.45854,4.32163 0.45854,5.18155 0,2.22516 -0.91259,4.89072 -2.51454,7.34467 -1.60312,2.45574 -2.09037,3.32183 -1.86878,3.32183 0.0871,0 1.07714,-0.46358 2.20016,-1.03018 z m -71.03634,-4.37409 c 1.39624,-1.57344 2.86584,-3.33298 3.26577,-3.91008 l 0.72714,-1.04927 -0.31332,-3.43349 c -0.17232,-1.88842 -0.66904,-5.36862 -1.10381,-7.73379 -0.92275,-5.01981 -0.67346,-4.68944 -5.36845,-7.1147 -4.11776,-2.12708 -7.8305,-3.68231 -13.2818,-5.56361 -4.10323,-1.41607 -5.5515,-2.16986 -5.07822,-2.64314 0.50778,-0.50778 13.35086,3.27276 17.22494,5.07041 2.79434,1.29662 4.51687,1.80954 4.51687,1.34498 0,-0.83456 -1.26978,-7.06518 -2.23466,-10.96518 -1.22469,-4.950135 -5.29106,-18.509933 -5.66454,-18.889106 -0.12836,-0.130321 -0.58167,0.823483 -1.00735,2.119564 -1.67941,5.11336 -3.6283,8.487445 -6.6446,11.503753 -2.4407,2.440697 -6.7508,5.689699 -7.54791,5.689699 -0.65663,0 -0.65941,-0.0148 -0.49198,-2.61412 0.64538,-10.018945 2.20112,-14.713905 6.20998,-18.740659 2.05717,-2.066351 5.07239,-3.865956 7.12143,-4.250359 l 1.00513,-0.188563 -0.1482,-1.634364 c -0.17203,-1.897178 -1.40451,-4.427554 -3.0882,-6.340328 -1.58465,-1.800257 -1.88385,-1.816074 -3.95811,-0.209233 -4.027,3.11955 -8.214,4.984009 -12.85893,5.726039 -1.7489,0.279389 -7.37574,0.422981 -7.60466,0.194064 -0.30971,-0.309715 3.08366,-5.667066 4.62458,-7.301137 0.97146,-1.030195 1.7663,-2.006047 1.7663,-2.16856 0,-0.801476 -8.20541,-1.613316 -12.16531,-1.20363 -3.57241,0.369598 -5.53283,1.054478 -6.97821,2.437871 -1.66251,1.591208 -1.66337,2.570564 -0.003,3.653673 9.54592,6.22786 14.39536,11.573153 16.8479,18.570589 1.41399,4.03429 1.739,6.583468 1.41884,11.128463 -0.32069,4.552534 -1.45804,8.958414 -3.85954,14.951114 -0.60114,1.50007 -3.32993,6.28476 -5.92775,10.39379 -1.39694,2.20956 -1.5336,2.55712 -1.25009,3.17935 0.40238,0.88313 0.57589,0.87534 3.19498,-0.14348 4.18111,-1.62642 8.82676,-2.06411 13.41906,-1.26426 1.94897,0.33945 3.08989,0.74692 5.10545,1.82334 5.05331,2.69875 9.86661,6.07636 14.59207,10.23961 1.37061,1.20755 2.60627,2.19555 2.7459,2.19555 0.13964,0 1.39627,-1.28736 2.79251,-2.8608 z M 97.034226,129.46374 c 0.55533,-0.60233 1.41376,-1.85323 1.90761,-2.77979 1.583464,-2.97089 1.069604,-3.67997 -1.53901,-2.12371 -1.8805,1.12188 -3.91349,2.97353 -4.50966,4.1074 -0.39993,0.76064 -0.55904,3.3653 -0.22592,3.69842 0.2793,0.2793 3.26004,-1.70172 4.36698,-2.90232 z m 132.593474,1.24405 c 1.9818,-0.28601 3.60326,-0.61346 3.60326,-0.72765 0,-0.2802 -3.01845,-2.72358 -3.93241,-3.18322 -1.76387,-0.88706 -2.19517,-0.82116 -3.07624,0.47003 -1.04963,1.53822 -1.47281,2.3481 -1.772,3.39133 -0.23521,0.82013 -0.22095,0.83518 0.66689,0.7038 0.49899,-0.0738 2.52871,-0.36827 4.5105,-0.65429 z m 15.61412,-1.53166 c 15.37719,-1.10255 29.13844,-3.77256 37.37498,-7.25164 0.97147,-0.41034 1.7663,-0.83857 1.7663,-0.95163 0,-0.36119 -5.94425,-7.94018 -8.63835,-11.01399 -3.02322,-3.44933 -8.19237,-8.54305 -9.98556,-9.83985 -1.45564,-1.052704 -2.02632,-1.09272 -4.76405,-0.334059 -1.30749,0.362329 -2.92859,0.567839 -4.51605,0.572509 -4.70344,0.0138 -7.91978,0.47307 -9.94235,1.41954 -1.75472,0.82114 -2.84931,1.56551 -2.84923,1.93762 2e-5,0.0925 2.25736,0.17925 5.0163,0.19281 2.75895,0.0136 6.09003,0.17205 7.40241,0.35218 2.7887,0.38278 8.77927,2.27312 8.9977,2.83925 0.0893,0.23148 -0.35295,0.80582 -1.0881,1.41304 -0.68122,0.56267 -2.6908,2.33186 -4.46574,3.93153 -2.4416,2.20051 -3.78472,3.17627 -5.51771,4.00857 -5.15671,2.47661 -11.2385,3.09242 -18.54054,1.87732 l -2.40217,-0.39973 -1.07758,1.03093 c -1.13513,1.08599 -1.98614,2.32324 -2.29005,3.32938 -0.15694,0.51958 0.18324,0.83708 2.46416,2.29992 1.45542,0.93342 3.69909,2.46835 4.98593,3.41096 1.78983,1.31105 2.5149,1.68628 3.08514,1.59656 0.40999,-0.0645 2.65304,-0.25405 4.98456,-0.42122 z m -22.44365,-4.09771 c 0.45034,-0.77717 0.81999,-1.50368 0.82145,-1.61447 0.008,-0.57987 -5.21545,-3.57684 -5.58669,-3.2056 -0.0873,0.0873 0.26693,2.00615 0.78714,4.26414 l 0.94583,4.10545 1.10674,-1.06824 c 0.6087,-0.58753 1.47519,-1.70411 1.92553,-2.48128 z m -86.35965,2.02565 c 0.20104,-0.5848 0.67349,-1.53415 1.04989,-2.10968 0.3764,-0.57552 0.7713,-1.28056 0.87755,-1.56675 0.4184,-1.1269 -1.46441,-3.58762 -2.45438,-3.20773 -0.50427,0.1935 -1.78968,2.49852 -2.15977,3.87292 -0.20049,0.74457 -0.19577,1.3175 0.0155,1.87653 0.35253,0.93299 1.67698,2.40755 2.05061,2.28301 0.14031,-0.0468 0.4196,-0.56351 0.62064,-1.1483 z m -46.051484,-0.29383 c 0.86934,-0.40481 1.94698,-1.25841 2.75543,-2.1826 1.29999,-1.48608 1.32771,-1.55748 1.32771,-3.41963 0,-1.24617 0.20866,-2.46576 0.60521,-3.53746 0.69077,-1.86685 1.17226,-2.60919 3.14238,-4.84472 2.097464,-2.38004 2.635354,-3.37205 3.010274,-5.55175 0.55703,-3.23838 1.43189,-4.77578 4.2604,-7.486791 2.46761,-2.365114 3.94449,-4.631557 3.96087,-6.07841 0.0156,-1.382129 1.30038,-3.340752 3.22316,-4.913815 1.76076,-1.440511 2.03718,-1.815551 3.0099,-4.083755 1.25188,-2.919166 1.68824,-3.474957 3.29152,-4.192414 1.71583,-0.767822 2.83999,-1.811549 3.62973,-3.370031 0.79169,-1.562313 0.85235,-1.950842 0.3046,-1.950842 -0.48009,0 -7.21508,3.306975 -9.91512,4.868463 -8.90223,5.148338 -21.052104,14.370523 -27.347364,20.757605 l -1.90053,1.92826 2.11249,12.25925 c 1.16187,6.74258 2.11249,12.30644 2.11249,12.36412 0,0.29407 1.14755,0.0256 2.41685,-0.56548 z m 26.640254,-1.23726 c 0.90315,-1.27126 1.921,-3.96911 2.74555,-7.27716 0.42617,-1.70979 0.96969,-3.51773 1.20781,-4.01766 0.59284,-1.24464 1.79245,-1.74591 3.75938,-1.57088 1.4448,0.12856 1.66496,0.0695 2.48782,-0.66782 0.92945,-0.83278 1.41856,-2.21467 1.43122,-4.04366 0.0105,-1.51579 1.15415,-2.902 3.15714,-3.82671 1.65624,-0.76463 1.76251,-0.87788 2.64869,-2.82249 1.20435,-2.642757 2.11284,-3.393307 4.61907,-3.816036 2.28031,-0.384624 4.87144,-1.553898 6.19484,-2.79548 1.1026,-1.034442 2.31514,-3.502597 2.31901,-4.720424 0.006,-1.753346 -0.83018,-3.441984 -2.4249,-4.899466 -2.30216,-2.10404 -5.5793,-3.198792 -11.23932,-3.754575 l -3.35176,-0.329125 1.58163,-0.799766 c 2.3838,-1.205385 4.45955,-1.642404 7.80109,-1.642404 3.5162,0 6.162,0.631599 9.18575,2.192798 1.52905,0.789466 2.72672,1.777175 5.23288,4.315536 3.71597,3.763713 4.69266,4.513397 5.8801,4.513397 0.69603,0 0.90253,-0.158683 1.1572,-0.889248 1.08735,-3.119175 -3.64826,-8.157002 -11.13513,-11.845747 -3.25292,-1.6027 -5.86227,-2.086242 -11.30434,-2.094822 -3.89731,-0.0061 -4.79726,0.07955 -6.51696,0.620569 -2.2625,0.711782 -4.12974,1.941696 -4.91953,3.240407 -0.29555,0.485991 -0.73832,1.786908 -0.98394,2.890925 -0.58564,2.632304 -1.18773,3.559022 -3.20023,4.925684 -2.30842,1.567622 -2.32255,1.592696 -3.91182,6.939609 -0.35357,1.189551 -0.84397,2.026132 -1.71014,2.917358 -0.73955,0.760942 -1.34022,1.711137 -1.53613,2.430011 -0.71462,2.622209 -0.87516,2.987219 -1.74785,3.973829 -0.49949,0.56469 -1.78836,1.62969 -2.86415,2.36667 -1.07579,0.73698 -2.33593,1.81434 -2.80032,2.39414 -0.82025,1.02411 -0.84277,1.13369 -0.78951,3.84133 0.0302,1.53292 -0.0795,3.1404 -0.24363,3.57216 -0.16416,0.43176 -0.97861,1.56458 -1.8099,2.51737 -0.83128,0.95279 -1.71883,2.13934 -1.97234,2.63678 -0.58505,1.14804 -0.60082,3.00806 -0.0295,3.4822 0.24458,0.20298 1.68258,0.44119 3.32065,0.55008 2.46483,0.16384 3.22137,0.3409 5.15012,1.20532 2.84385,1.27455 3.8649,1.33816 4.61147,0.2873 z m -4.36166,-3.30421 c -0.11888,-0.3098 0.0264,-0.62289 0.41529,-0.89531 0.91343,-0.63979 1.99661,-2.6891 2.19801,-4.15848 0.0993,-0.72473 0.34642,-1.54106 0.54909,-1.81408 0.3513,-0.47325 0.39211,-0.47308 0.8756,0.004 1.18921,1.17237 0.26801,5.4579 -1.40947,6.55702 -1.07908,0.70704 -2.41518,0.86324 -2.62852,0.30729 z m -4.34763,-0.88312 c 0,-0.24352 0.31412,-0.8546 0.69804,-1.35795 1.08321,-1.42016 1.83147,-3.3523 2.02858,-5.23817 0.099,-0.94708 0.29619,-1.72197 0.43822,-1.72197 0.14204,0 0.52099,0.59399 0.84213,1.31997 0.75314,1.70259 0.57703,3.92456 -0.43189,5.44914 -1.0065,1.52092 -3.57508,2.63381 -3.57508,1.54898 z m 11.09238,-11.33134 c -0.61987,-0.25013 -0.37999,-1.08822 0.45217,-1.57979 1.11356,-0.6578 2.51032,-2.12733 3.22275,-3.39065 0.6267,-1.11131 1.00355,-1.28457 1.56747,-0.72065 0.49184,0.49184 0.41884,1.40489 -0.25669,3.21039 -0.51218,1.36894 -0.76011,1.66707 -1.7663,2.12396 -1.12227,0.5096 -2.47036,0.65898 -3.2194,0.35674 z m -7.0874,-1.59141 c -0.40588,-0.48904 0.022,-0.88623 3.05621,-2.83665 2.10999,-1.35635 3.65683,-3.25869 4.63481,-5.699984 0.56093,-1.40023 0.79525,-1.695651 1.3449,-1.695651 0.58386,0 0.67648,0.151448 0.75408,1.233068 0.13648,1.902327 -0.87254,4.813087 -2.18555,6.304737 -1.83435,2.08394 -6.6848,3.8026 -7.60445,2.69448 z m 19.17329,-11.37525 c -0.89728,-0.491338 -1.70677,-0.693991 -2.77211,-0.693991 -1.74809,0 -1.73398,-0.344828 0.0472,-1.153654 2.81,-1.276026 6.60468,0.0036 5.96718,2.012155 -0.24666,0.777157 -1.65287,0.705807 -3.24224,-0.16451 z m 4.85733,-2.691177 c -1.02656,-0.3159 -1.4833,-1.036823 -0.88941,-1.403863 0.20941,-0.129421 1.33178,-0.32443 2.49416,-0.433354 2.52047,-0.236188 3.42485,-0.893948 3.42485,-2.49093 0,-1.591527 -1.63072,-2.479358 -6.57065,-3.577334 -0.89375,-0.19865 -1.625,-0.468118 -1.625,-0.598819 0,-0.1307 1.48595,-0.237637 3.30211,-0.237637 4.17132,0 6.22613,0.525097 7.75827,1.982587 0.96854,0.921351 1.09178,1.190242 1.09178,2.382029 0,3.067542 -1.65153,4.410771 -5.61596,4.567595 -1.34111,0.05305 -2.85767,-0.03257 -3.37015,-0.190274 z m -12.08739,-1.074429 c 1.62852,-3.149209 6.35271,-5.939695 7.03696,-4.156587 0.26119,0.680656 -0.61142,1.496926 -1.96445,1.837624 -1.69811,0.42759 -2.77274,0.987801 -4.31931,2.251692 l -1.24423,1.016812 z m 46.17137,29.990076 c 3.06961,-4.1463 7.1044,-13.04546 7.97152,-17.58207 0.79113,-4.13895 0.9137,-6.109279 0.57992,-9.321524 -0.70454,-6.78017 -2.52578,-11.274547 -6.04467,-14.916709 -5.41489,-5.604605 -15.37215,-12.22218 -19.96064,-13.265805 -2.56773,-0.584017 -6.91878,-0.645818 -9.05704,-0.128643 -1.23738,0.299282 -5.07729,1.807118 -5.62862,2.210214 -0.33172,0.242535 0.48737,0.439908 3.40804,0.821229 3.8435,0.501805 5.68366,0.955163 8.36511,2.060906 4.1187,1.698415 7.89302,4.227465 11.3207,7.585646 2.47434,2.424165 3.37379,4.184279 3.6487,7.14004 0.26955,2.898243 -0.29921,4.035501 -3.16536,6.329199 -0.56241,0.450083 -1.28792,1.338467 -1.61224,1.974187 -0.61958,1.214472 -0.626,2.706935 -0.046,10.685 l 0.17853,2.45579 -0.85699,0.85699 c -0.82559,0.82559 -0.92427,0.85071 -2.69325,0.68552 -1.6888,-0.1577 -1.86279,-0.12191 -2.16652,0.44562 -0.45046,0.84169 0.0113,2.16406 1.26844,3.63279 0.54015,0.63104 3.05564,2.55203 5.58998,4.26886 2.94968,1.99819 5.04013,3.63411 5.80899,4.54594 0.6606,0.78343 1.30866,1.42442 1.44013,1.42442 0.13147,0 0.87455,-0.85842 1.65129,-1.9076 z m -24.70112,-3.83301 c 0.39661,-0.39662 0.73131,-1.17147 0.85112,-1.97045 0.2702,-1.80183 1.10111,-2.44719 2.89104,-2.24544 1.21662,0.13713 1.30528,0.10589 1.09935,-0.38738 -0.75119,-1.79939 -0.18272,-2.72262 1.32581,-2.15321 0.47662,0.1799 0.95825,0.27044 1.07029,0.2012 0.11204,-0.0692 0.26854,-0.70104 0.34777,-1.40397 0.21706,-1.92577 0.59403,-2.23108 2.46584,-1.99711 3.46922,0.43366 3.52991,0.36613 3.28672,-3.65682 -0.32668,-5.40403 -0.58,-6.600981 -1.62526,-7.679417 -1.49212,-1.539473 -3.14045,-2.18467 -6.03334,-2.361591 l -2.54348,-0.155553 1.26806,-0.373303 c 1.69267,-0.498303 4.26033,-0.203054 6.15041,0.707218 0.81604,0.393005 1.4837,0.832375 1.4837,0.976378 0,0.144002 0.12717,0.261823 0.28261,0.261823 0.15856,0 0.28261,-0.7831 0.28261,-1.784082 0,-1.591444 -0.0867,-1.867184 -0.80333,-2.553721 -1.72463,-1.652296 -5.30908,-2.358239 -7.26393,-1.430601 -0.52039,0.246941 -1.48615,1.168951 -2.14613,2.048912 -2.73265,3.643482 -4.51524,5.381304 -6.01899,5.867821 -2.96901,0.960576 -3.256,1.186546 -4.23857,3.337286 -0.59028,1.29208 -1.34548,2.3908 -2.12676,3.0942 -1.13693,1.02359 -1.22037,1.20174 -1.35638,2.89609 -0.18464,2.30029 0.39557,3.89824 2.12073,5.84068 0.69915,0.7872 1.68803,2.08292 2.19751,2.87937 1.1161,1.74475 1.40211,1.99685 2.67934,2.36176 1.86309,0.53229 3.63086,0.40231 4.35326,-0.32009 z m 5.91069,-17.60626 c -0.0962,-0.25058 -0.18755,-0.84892 -0.20309,-1.32965 -0.0324,-1.00345 -0.54178,-1.237778 -2.85435,-1.313199 -1.27372,-0.04154 -1.34338,-0.07593 -0.70652,-0.348819 0.38859,-0.166504 1.72391,-0.308118 2.96739,-0.314698 1.77166,-0.0094 2.51307,0.118477 3.42641,0.590865 1.11077,0.574502 2.64967,2.090871 2.64967,2.610871 0,0.67458 -0.70694,0.54135 -1.32621,-0.24993 -0.76644,-0.97933 -1.49987,-1.16359 -1.49987,-0.37681 0,0.27978 -0.15261,0.6613 -0.33913,0.84783 -0.49948,0.49948 -1.90771,0.42191 -2.1143,-0.11646 z m 71.72865,16.16603 c 1.36168,-0.56902 2.50734,-1.53859 2.50734,-2.12195 0,-0.27549 -0.26826,-0.74317 -0.59614,-1.03927 -0.99332,-0.89705 -4.12107,-5.78746 -5.1611,-8.06966 -2.20733,-4.84367 -3.38745,-10.127366 -3.87838,-17.36454 -0.39326,-5.797304 -0.13076,-12.267179 0.49771,-12.267179 0.22707,0 1.64475,0.493918 3.15039,1.097594 1.50564,0.603677 2.95458,1.169857 3.21986,1.258178 0.36021,0.119922 0.72874,-0.247456 1.4554,-1.450854 1.18755,-1.966654 1.87748,-3.592364 1.87748,-4.423972 0,-0.527404 -0.4482,-0.803627 -2.89674,-1.78526 -1.59321,-0.638724 -2.9405,-1.037772 -2.99398,-0.886774 -0.0535,0.150998 0.2455,0.723901 0.66441,1.273117 0.41891,0.549217 0.71032,1.049905 0.64759,1.11264 -0.0627,0.06274 -1.91603,0.255646 -4.11844,0.428689 -4.89952,0.384957 -6.89484,0.126616 -9.79468,-1.268151 -2.04808,-0.985085 -2.7038,-1.186649 -2.7038,-0.831126 0,0.323595 3.12785,12.281676 5.94153,22.715038 1.53,5.67336 3.36857,12.60434 4.08572,15.40216 0.71714,2.79783 1.44392,5.36822 1.61505,5.71198 0.31869,0.64015 4.23962,2.88295 5.06774,2.89878 0.25303,0.005 0.8889,-0.17041 1.41304,-0.38944 z m 22.28148,-3.96987 c 4.89379,-1.09819 13.00037,-4.39161 14.2741,-5.79907 0.42148,-0.46573 0.36543,-0.50727 -0.9027,-0.66907 -0.74365,-0.0949 -3.13252,-0.31858 -5.3086,-0.49709 -10.19847,-0.83662 -16.16677,1.1448 -17.789,5.90577 -0.50619,1.48559 -0.56067,2.14467 -0.15664,1.89496 0.15543,-0.0961 0.28261,-0.0708 0.28261,0.0562 0,0.42918 6.33715,-0.1594 9.60023,-0.89165 z m -9.16219,0.45996 c 0.14766,-0.12883 1.28587,-0.87508 2.52935,-1.65832 3.68092,-2.31856 6.03463,-3.38385 8.22745,-3.72373 2.43476,-0.37739 8.58775,-0.75203 8.58775,-0.5229 0,0.0904 -0.73125,0.30945 -1.625,0.48681 -4.94146,0.9806 -8.35041,1.97286 -12.75371,3.71228 -4.968,1.96249 -5.44961,2.12793 -4.96584,1.70586 z m -4.11195,-1.57571 c 0,-0.2183 -1.33751,-2.38075 -2.97225,-4.80545 -3.13056,-4.64335 -4.29991,-6.74504 -5.0461,-9.06937 -0.48777,-1.51941 -2.2126,-9.787159 -2.07128,-9.928475 0.0469,-0.04691 0.77128,1.786283 1.6097,4.073766 0.83843,2.287482 2.73291,6.511774 4.20995,9.387309 1.47704,2.87555 3.04902,6.11848 3.49329,7.20652 l 0.80777,1.97826 -0.15309,-2.18838 c -0.50062,-7.15652 -3.85106,-16.587807 -8.2068,-23.101701 -1.95055,-2.916984 -4.05459,-5.277381 -4.36947,-4.901848 -0.30334,0.36176 0.19488,10.027358 0.69456,13.474774 1.08195,7.464605 4.25496,12.974085 9.46787,16.439625 1.07775,0.71648 2.03313,1.42176 2.12307,1.56729 0.23607,0.38196 0.41278,0.32532 0.41278,-0.13232 z M 73.133236,105.60108 c 1.70978,-0.76452 3.47563,-1.64379 3.92411,-1.95391 0.73908,-0.51107 0.77086,-0.59645 0.33945,-0.91191 -0.75381,-0.55119 -4.04635,-1.07962 -6.66573,-1.06979 -1.87198,0.007 -2.65167,0.139 -3.53261,0.59798 -1.2562,0.65449 -4.94565,3.64956 -4.94565,4.01483 0,0.47688 2.20549,0.81875 4.94565,0.76662 2.72359,-0.0518 2.93884,-0.10418 5.93478,-1.44382 z m -7.06254,-0.62476 c 1.49128,-1.09045 3.66403,-1.59269 7.48645,-1.73053 2.09837,-0.0757 3.75163,-0.0699 3.67391,0.0129 -0.0777,0.0828 -1.85815,0.36748 -3.95651,0.63273 -2.09837,0.26525 -4.69663,0.70486 -5.7739,0.9769 -1.46673,0.37039 -1.82588,0.39752 -1.42995,0.10801 z m 170.249784,-2.99286 c 0.42215,-4.949284 1.05912,-10.256204 1.56022,-12.998866 l 0.37606,-2.058319 0.0841,2.967389 c 0.15554,5.486186 -0.0402,8.5061 -0.73261,11.304336 -0.3654,1.47663 -0.75034,2.90734 -0.85543,3.17935 -0.42645,1.10384 0.1709,0.37072 1.3841,-1.69867 2.2127,-3.774269 3.57904,-8.274698 3.56735,-11.750095 -0.0102,-3.030649 -1.45522,-7.591357 -2.99904,-9.465421 l -0.54269,-0.658766 -2.37435,5.887023 c -3.02137,7.491277 -3.08864,8.110532 -1.57583,14.506579 0.56984,2.40924 1.08993,4.54746 1.15575,4.75161 0.32487,1.00749 0.64006,-0.30519 0.95233,-3.96615 z M 62.339486,100.49383 c 2.2775,-0.593205 4.28336,-1.674754 5.88563,-3.173491 2.06391,-1.93055 1.91367,-2.172117 -1.19952,-1.928577 -3.03557,0.237469 -5.22801,0.759126 -7.17496,1.707176 -1.44509,0.703672 -4.38043,3.086402 -4.38043,3.555762 0,0.41915 5.1011,0.29969 6.86928,-0.16087 z m -2.77146,-1.400416 c 0.62174,-0.204121 2.8944,-1.028113 5.05036,-1.831094 2.15596,-0.802982 3.96766,-1.412226 4.02601,-1.353877 0.27695,0.276946 -5.64401,2.785292 -7.46984,3.164516 -2.49,0.517169 -3.14489,0.525508 -1.60653,0.02045 z M 194.06944,97.382789 c 2.32439,-2.999962 4.07568,-5.808227 6.0803,-9.749993 1.30269,-2.561535 2.84211,-6.48104 2.84211,-7.236285 0,-0.321671 -0.9822,-0.0063 -2.77711,0.891639 -2.4013,1.201321 -4.60809,3.489088 -6.07371,6.296595 -0.89579,1.715941 -2.24491,6.737588 -2.86012,10.64587 -0.0979,0.621738 -0.25202,1.511955 -0.34255,1.978255 l -0.1646,0.84783 0.77198,-0.70652 c 0.42458,-0.388588 1.56025,-1.723914 2.5237,-2.967391 z m -0.39132,-1.600523 c -0.024,-0.364395 2.88059,-7.748554 3.69032,-9.381639 1.00102,-2.01889 1.82905,-3.0275 3.72362,-4.535699 l 1.4522,-1.15604 -1.62562,2.119563 c -0.94514,1.232317 -2.79823,4.426407 -4.42689,7.63043 -1.5407,3.030976 -2.80683,5.426499 -2.81363,5.323385 z M 80.780816,97.327429 c -0.39036,-0.574469 -0.91893,-1.984699 -1.17459,-3.133844 -0.56512,-2.540135 -0.2479,-4.690013 0.91747,-6.217892 l 0.75087,-0.984449 -1.03366,-4.130308 c -0.97247,-3.885839 -1.7498,-9.164984 -1.42652,-9.68807 0.0801,-0.129642 0.0388,-0.235712 -0.0918,-0.235712 -0.13061,0 -0.9796,0.749951 -1.88665,1.666557 l -1.64916,1.666558 1.14365,2.788984 c 1.53692,3.748049 1.91594,6.016439 1.4989,8.970796 -0.38121,2.700491 -1.77773,7.497139 -2.57732,8.852336 -0.31043,0.526144 -0.56442,1.007593 -0.56442,1.069887 0,0.0623 0.9856,0.156606 2.19022,0.209581 1.20462,0.05298 2.73529,0.121912 3.40149,0.153192 l 1.21127,0.05687 z m 4.86979,-2.140705 c 0.0986,-2.614488 -0.33844,-3.751693 -1.85705,-4.8322 l -1.03538,-0.736681 -0.35137,0.632475 c -0.49004,0.882085 -0.45574,3.133196 0.0668,4.386115 0.54185,1.29913 2.08368,2.932978 2.66345,2.822409 0.33317,-0.06354 0.44966,-0.578948 0.51351,-2.272118 z m -1.05891,1.278782 c -0.59491,-1.280584 -1.42674,-3.802243 -1.41337,-4.284565 0.0205,-0.73783 1.08587,1.518497 1.53966,3.260715 0.46928,1.801693 0.42014,2.200061 -0.12629,1.02385 z M 246.0235,96.317505 c 0.66576,-0.508189 2.16116,-1.390975 3.32309,-1.961746 3.10723,-1.526338 18.95243,-8.205609 19.10476,-8.053279 0.12094,0.120941 -7.97134,5.090116 -9.70898,5.961929 -1.95904,0.982894 -3.62391,1.585552 -8.6962,3.147883 -2.33152,0.718139 -4.35994,1.423491 -4.50761,1.56745 -0.43794,0.426954 7.08165,0.307111 9.59456,-0.152913 6.25399,-1.14488 10.6334,-3.165714 14.38719,-6.638824 2.44831,-2.265245 4.67967,-6.268462 3.80341,-6.823588 -0.64627,-0.409418 -6.80872,-0.283027 -9.30697,0.190884 -8.91797,1.69171 -15.75049,5.996469 -18.65731,11.754853 -1.17279,2.323271 -1.13499,2.380599 0.66406,1.007351 z M 91.926856,91.801271 c 4.39605,-4.405706 7.74559,-9.54214 8.456884,-12.96841 0.41978,-2.022092 1.68283,-4.667091 2.88187,-6.035053 0.52501,-0.598976 1.87535,-1.770565 3.00076,-2.603529 1.12541,-0.832965 2.69755,-2.305216 3.49365,-3.27167 0.7961,-0.966454 2.00548,-2.277452 2.6875,-2.913329 0.68202,-0.635878 1.24004,-1.274887 1.24004,-1.420022 0,-0.145134 -1.11277,-0.492874 -2.47282,-0.772756 -3.46743,-0.713551 -8.2726,-2.312655 -10.84112,-3.607798 -1.197244,-0.603694 -2.233054,-1.097626 -2.301784,-1.097626 -0.13614,0 -6.14906,4.466985 -8.7497,6.500129 -1.5113,1.181512 -1.58898,1.299644 -1.2049,1.832483 2.50614,3.476849 3.81645,7.167314 4.01516,11.308679 0.1961,4.087078 -0.27339,7.414761 -1.63825,11.611705 -1.05548,3.245575 -1.40724,5.486109 -0.86131,5.486109 0.13728,0 1.16959,-0.92201 2.29402,-2.048912 z m -27.1994,-0.07539 c 1.32206,-0.230546 2.67423,-0.419176 3.00483,-0.419176 0.58338,0 0.60104,-0.112064 0.59885,-3.801236 l -0.002,-3.801237 -0.56521,0.66784 c -1.39646,1.650003 -5.99936,7.398321 -6.2136,7.759833 -0.18131,0.305938 -0.11765,0.355175 0.26792,0.20722 0.27815,-0.106737 1.58741,-0.382697 2.90946,-0.613244 z m 9.59079,-2.066993 c 0.33662,-1.439345 0.49972,-3.211641 0.48555,-5.276091 -0.0211,-3.069377 -0.51016,-6.358691 -0.94548,-6.358691 -0.12319,0 -0.54917,0.731249 -0.94663,1.624999 -2.05114,4.612346 -2.22893,9.043998 -0.47721,11.894845 0.7974,1.297719 1.24391,0.850894 1.88377,-1.885062 z m -1.48168,-0.223057 c -0.23136,-2.160372 0.007,-6.597884 0.42368,-7.879119 0.18806,-0.578618 0.22273,0.812284 0.10918,4.380432 -0.0915,2.875541 -0.20269,5.270053 -0.24706,5.321136 -0.0444,0.05108 -0.17299,-0.769018 -0.2858,-1.822449 z M 230.26961,88.451397 c -0.3915,-1.615991 -0.71239,-3.510448 -0.71309,-4.209904 -0.001,-1.370647 1.06913,-5.369562 1.4374,-5.369562 0.12326,0 0.15056,1.55788 0.0607,3.461955 -0.1883,3.988888 0.10359,8.499369 0.53287,8.234063 0.15613,-0.09649 0.6334,-0.955344 1.0606,-1.908558 2.1372,-4.768675 1.88459,-8.782653 -0.7723,-12.272266 l -0.70843,-0.93046 -0.82089,0.786465 c -1.14732,1.099199 -2.42223,3.885906 -2.63997,5.770477 -0.23399,2.025201 0.25984,4.427809 1.35823,6.60802 1.00099,1.986889 1.65586,3.028805 1.80803,2.876632 0.0598,-0.05978 -0.21162,-1.43087 -0.60313,-3.046862 z M 87.501786,88.127361 c 1.31621,-5.017857 1.73368,-9.476999 1.29659,-13.849218 -0.30201,-3.020861 -1.41933,-7.687066 -1.97552,-8.250217 -0.42714,-0.432485 -2.19468,1.501718 -3.08567,3.376622 -1.16522,2.451938 -1.52401,4.70589 -1.34009,8.418605 0.15336,3.095958 0.75416,5.963293 1.72902,8.251826 0.70632,1.658115 2.15465,3.818685 2.55985,3.818685 0.19458,0 0.56007,-0.791308 0.81582,-1.766303 z m -1.92422,-3.220276 c -0.94912,-4.212979 -1.03247,-7.097629 -0.31523,-10.910178 0.70673,-3.75662 1.05139,-4.225548 0.85673,-1.165588 -0.26396,4.149167 -0.19887,9.092092 0.16042,12.18263 0.18374,1.58044 0.28512,3.02036 0.2253,3.199822 -0.0598,0.179461 -0.47707,-1.308548 -0.92722,-3.306686 z M 249.01853,79.842051 c 0.65436,-2.210613 0.61229,-11.898951 -0.0674,-15.524456 -0.73586,-3.925057 -1.95349,-7.503206 -3.47806,-10.22062 -1.44543,-2.576361 -3.60537,-5.464152 -4.08694,-5.464152 -0.22706,0 -0.2725,1.989365 -0.16299,7.135865 0.20031,9.414375 0.8856,13.661355 3.05378,18.925194 0.987,2.396225 3.65906,6.765503 4.05647,6.633034 0.14987,-0.04996 0.45819,-0.718148 0.68514,-1.484865 z m -1.04442,-0.785658 c -0.0261,-0.287134 -0.68034,-3.466479 -1.4538,-7.065213 -1.38705,-6.453552 -2.96843,-15.403927 -2.75868,-15.613674 0.11712,-0.117123 1.1618,3.403889 2.62695,8.853927 0.96214,3.578964 1.96107,11.147318 1.74696,13.235771 -0.0627,0.611187 -0.1353,0.876322 -0.16143,0.589189 z m 5.32135,0.310104 c 1.67766,-1.667106 3.10884,-4.366419 3.10918,-5.864133 1.5e-4,-0.703434 -0.33275,-1.458501 -1.15256,-2.614129 -0.63403,-0.893745 -1.1931,-1.624991 -1.24238,-1.624991 -0.0493,0 -0.30252,1.176357 -0.56276,2.614128 -0.26024,1.437771 -0.84573,3.904844 -1.3011,5.482385 -1.20395,4.170922 -1.14022,4.282179 1.14962,2.00674 z m -144.48299,-1.49119 c 1.41577,-0.659012 2.63296,-1.523634 3.93932,-2.79827 1.03977,-1.01452 1.82563,-1.909445 1.74635,-1.988722 -0.20541,-0.205408 -4.9837,2.376064 -6.78465,3.665406 l -1.51505,1.084665 1.27173,-1.355319 c 1.64147,-1.749347 3.30363,-2.81139 5.5916,-3.57278 1.51326,-0.50358 1.74911,-0.661168 1.33573,-0.892506 -1.48935,-0.833484 -6.03586,0.878172 -8.00396,3.013303 -1.11811,1.213004 -1.96436,3.264486 -1.59389,3.863915 0.26424,0.427557 1.67238,0.06974 4.01282,-1.019692 z m 132.89675,-0.788739 c 0,-0.04934 -0.62655,-1.489317 -1.39234,-3.199942 -3.1622,-7.063804 -3.50133,-12.360086 -1.51426,-23.649075 l 0.78703,-4.471354 0.84783,0.16857 c 1.91615,0.380983 5.98963,3.877825 8.52887,7.321534 l 1.22112,1.656088 0.005,-4.199565 c 0.004,-3.1364 0.14703,-4.843472 0.56678,-6.743041 0.30912,-1.398912 0.59312,-2.713643 0.63112,-2.921624 0.0797,-0.436493 -2.13625,-1.377828 -8.55047,-3.632151 -13.1438,-4.619486 -26.01049,-7.344785 -40.69562,-8.619759 -6.01646,-0.522353 -20.50044,-0.436409 -26.5652,0.15763 -19.46806,1.90688 -36.56523,6.502122 -53.61857,14.411169 -3.91986,1.817967 -11.25388,5.64059 -11.79117,6.145775 -0.16023,0.150648 0.22398,0.252434 0.95286,0.252434 2.36439,0 7.23976,0.893453 9.20691,1.687243 1.08804,0.439051 4.33098,2.085577 7.20652,3.658948 2.87554,1.57337 5.67336,2.986834 6.21739,3.141031 1.97087,0.558623 6.13856,0.960402 6.81791,0.657268 0.608,-0.271298 0.56242,-0.319417 -0.71489,-0.75464 -3.5068,-1.194888 -6.99131,-3.820531 -8.56144,-6.451213 -0.77736,-1.302437 -2.3457,-5.878516 -2.34604,-6.845248 -1.5e-4,-0.409746 5.22529,-0.136419 7.06532,0.369567 3.85132,1.059063 7.51523,4.216083 9.60869,8.279368 0.87428,1.69691 1.42915,2.469411 1.77538,2.471714 0.68362,0.0045 2.34735,-0.710103 2.59824,-1.116064 0.12119,-0.196076 -0.46854,-1.036508 -1.45794,-2.077747 -0.91378,-0.961669 -2.07976,-2.409437 -2.59105,-3.217263 -1.02829,-1.624674 -2.60813,-5.218661 -3.26224,-7.421283 l -0.42322,-1.425153 h 0.81349 c 1.22116,0 6.92498,1.538797 9.29947,2.508846 2.75364,1.124942 6.12921,3.182089 8.52367,5.19451 1.95855,1.646059 4.93661,5.226101 6.28671,7.557503 0.40506,0.699456 1.29323,1.817494 1.97372,2.484528 l 1.23726,1.212789 2.51642,-0.08235 2.51643,-0.08236 -1.84099,-1.31229 c -2.12652,-1.515827 -6.19425,-5.692356 -8.50979,-8.737405 -1.64946,-2.169114 -3.80234,-5.732744 -5.52153,-9.139716 l -0.98413,-1.950293 2.07396,0.161356 c 3.88731,0.302436 9.22484,2.450276 14.33013,5.766496 2.23428,1.451316 4.80869,3.789109 7.20939,6.546773 0.58712,0.67442 1.14901,1.144704 1.24864,1.045076 0.35281,-0.352816 -0.82363,-4.005392 -2.18793,-6.79303 -0.76072,-1.554347 -2.14308,-3.970649 -3.07192,-5.369562 l -1.68879,-2.543476 1.17156,-0.191009 c 7.3852,-1.204066 13.57674,2.649291 17.40645,10.83305 1.47691,3.156032 2.26501,6.273793 2.47261,9.781802 0.15652,2.644929 0.22429,2.914105 0.76472,3.037393 0.32614,0.0744 2.18266,0.462423 4.12559,0.86227 8.27867,1.703713 14.74539,3.619974 20.63043,6.113345 3.90098,1.65277 10.94982,5.271043 14.69564,7.543489 2.8237,1.713032 3.95652,2.262489 3.95652,1.919049 z m 23.9971,-5.695806 c 3.30759,-2.499645 6.29858,-4.148512 8.57299,-4.726104 1.7308,-0.439542 10.28896,-1.266966 10.53717,-1.01876 0.0548,0.05477 -1.95974,0.655334 -4.47668,1.334586 -5.84852,1.578352 -9.23211,2.70047 -11.34038,3.76087 -2.20201,1.107547 -6.7312,3.91424 -6.57251,4.072925 0.20639,0.206393 9.4712,-1.027022 12.3475,-1.64381 3.93567,-0.843959 5.90487,-1.670776 10.31521,-4.3311 2.17609,-1.312618 4.37562,-2.531725 4.88784,-2.709126 1.17496,-0.406926 1.04812,-0.787596 -0.52908,-1.587875 -1.94214,-0.985449 -4.36156,-1.512418 -7.75006,-1.688023 -6.82105,-0.353493 -12.82713,1.957697 -17.04259,6.55813 -1.41894,1.54852 -3.44653,4.7006 -3.44653,5.357952 0,0.109895 0.47691,-0.201296 1.05979,-0.691535 0.58288,-0.49024 2.12968,-1.699899 3.43733,-2.68813 z m -77.92739,-0.0054 c 2.18126,-0.886327 5.96042,-3.414041 7.55969,-5.056351 l 1.24894,-1.282547 -0.82503,-0.317839 c -2.428,-0.935386 -5.92943,-0.463665 -8.81566,1.187669 -1.98872,1.137827 -4.8238,3.797449 -5.68846,5.336402 l -0.6791,1.208697 2.75178,-0.193431 c 1.90698,-0.134047 3.27247,-0.405007 4.44784,-0.8826 z m -1.88489,-2.244461 c 2.50325,-2.299807 4.54536,-3.198928 8.33695,-3.670694 1.01619,-0.126438 0.73224,0.03139 -1.41305,0.78542 -2.93687,1.032263 -4.28915,1.672538 -6.72919,3.186148 l -1.60776,0.997324 z m 32.92389,2.689789 c 0,-0.142225 -0.57386,-0.763719 -1.27524,-1.381097 -2.43537,-2.143697 -7.31165,-4.058847 -11.40132,-4.477846 l -1.8214,-0.186608 0.67585,1.202517 c 1.24838,2.221186 3.73624,3.989959 6.61559,4.703423 1.65373,0.409772 7.20652,0.517346 7.20652,0.139611 z m -3.53795,-0.846725 c -2.44123,-0.735949 -6.75002,-2.548736 -6.54511,-2.753649 0.21851,-0.218508 5.7214,1.615515 7.62249,2.540454 2.44269,1.18844 2.27059,1.222496 -1.07738,0.213195 z m 42.82775,-8.503373 c -0.37541,-4.800311 -0.66744,-6.18487 -2.38435,-11.30434 -1.28486,-3.831181 -1.19693,-4.020438 0.51869,-1.116338 2.88492,4.883417 3.41771,8.608754 2.5443,17.790239 l -0.14786,1.554347 0.59517,-1.07848 c 1.60495,-2.908258 2.22208,-9.641181 1.25842,-13.729326 -0.84035,-3.565041 -3.18415,-7.128664 -5.88462,-8.947266 -1.3164,-0.886515 -1.45776,-0.925547 -1.63332,-0.450977 -0.35357,0.955805 0.32546,7.211794 1.15497,10.640841 0.68127,2.816263 2.053,7.467457 3.79228,12.858687 l 0.3191,0.989129 0.0938,-1.554346 c 0.0516,-0.854891 -0.0504,-3.398368 -0.22662,-5.65217 z m -136.34398,6.184943 c 1.69861,-0.635533 3.44554,-2.149077 4.2289,-3.66394 0.57509,-1.112099 0.37609,-1.273674 -1.89304,-1.537035 -2.3013,-0.267094 -5.28507,0.305657 -7.58408,1.455807 -1.9301,0.965591 -3.80281,2.688797 -3.59675,3.309616 0.13448,0.405159 3.14476,0.952586 5.49187,0.99871 1.16799,0.02295 2.29042,-0.165561 3.3531,-0.563158 z m -6.04363,-1.529104 c 0.0817,-0.08168 1.2532,-0.341326 2.60338,-0.576996 1.35019,-0.23567 3.47765,-0.790422 4.72771,-1.232782 2.69365,-0.953206 2.58057,-0.728473 -0.41289,0.820574 -2.0683,1.0703 -2.34279,1.137709 -4.63264,1.137709 -1.33873,0 -2.36723,-0.06683 -2.28556,-0.148505 z M 139.59,66.298592 c 1.59507,-0.473684 3.77146,-1.924387 3.77146,-2.513918 0,-0.301693 -0.77476,-0.413817 -3.48221,-0.503952 -3.43421,-0.11433 -3.51454,-0.132332 -5.82738,-1.305855 -1.28983,-0.654459 -2.45708,-1.189926 -2.59387,-1.189926 -0.34715,0 -0.3112,2.05914 0.0527,3.019643 0.40121,1.058909 1.34401,2.054252 2.38335,2.516192 1.1389,0.506186 3.95363,0.495223 5.69593,-0.02218 z m -3.82427,-0.98974 c -1.10141,-0.263229 -2.19731,-1.016943 -2.80131,-1.926615 -0.35105,-0.528706 -0.18579,-0.475633 0.99659,0.320053 1.85965,1.251446 3.01246,1.41204 5.5266,0.769891 1.12029,-0.28614 2.07282,-0.486837 2.11674,-0.445995 0.13343,0.124075 -3.13005,1.239583 -4.03637,1.379697 -0.4663,0.07209 -1.27732,0.02842 -1.80225,-0.09703 z m 130.55452,-3.583839 c 1.69258,-1.209768 4.4984,-2.5047 6.60593,-3.048741 2.66514,-0.687984 8.30413,-0.525891 10.4435,0.300198 3.03025,1.170094 -9.29911,-6.922182 -16.93222,-11.113324 -6.99467,-3.840592 -10.07392,-5.1529 -7.33806,-3.127322 5.46065,4.04296 6.99466,9.075904 5.31938,17.452321 -0.21315,1.065735 -0.25018,1.074754 1.90147,-0.463132 z M 157.2928,62.039792 c 0.77187,-0.296193 0.57605,-0.621447 -1.00201,-1.664386 -2.17468,-1.437252 -4.39317,-1.947969 -6.75778,-1.555707 -1.03553,0.171784 -2.11651,0.493488 -2.40217,0.714899 -0.50191,0.389021 -0.50037,0.417571 0.0458,0.848601 1.0265,0.810053 2.7617,1.589298 4.07534,1.830161 1.36585,0.250434 5.2248,0.139557 6.04079,-0.173568 z m -3.47483,-0.849979 -2.68478,-0.677043 1.83695,0.08362 c 1.11842,0.05091 2.33441,0.315926 3.1087,0.677514 1.65371,0.772271 1.04525,0.74964 -2.26087,-0.08409 z m 41.95729,-1.888519 c -0.25386,-1.516467 -1.67141,-5.565976 -2.59687,-7.418473 -1.33272,-2.667706 -3.87821,-6.219323 -5.81711,-8.116373 -1.75918,-1.721203 -4.79273,-3.630593 -5.16951,-3.253811 -0.083,0.08302 0.17899,0.802056 0.58226,1.597857 0.40326,0.795801 1.552,3.337645 2.55275,5.648543 2.26569,5.231844 3.49433,7.3492 5.46964,9.426053 1.48314,1.559373 4.00442,3.297907 4.8018,3.311055 0.28834,0.0048 0.33037,-0.2789 0.17704,-1.194851 z m -2.42328,-2.402172 c -0.84876,-1.204619 -1.86912,-2.698911 -2.26747,-3.32065 -1.06134,-1.656531 -3.99533,-7.206517 -3.80971,-7.206517 0.24869,0 3.3151,4.655734 5.07246,7.70152 1.75126,3.035231 2.79589,5.015863 2.64548,5.015863 -0.0537,0 -0.792,-0.985598 -1.64076,-2.190216 z m -70.2805,2.593676 c 1.75228,-0.244401 3.23072,-0.489119 3.28542,-0.543819 0.21842,-0.218425 -2.7682,-2.198293 -4.8976,-3.24668 -3.59554,-1.770218 -6.5626,-2.383777 -11.58695,-2.396067 -3.63462,-0.0089 -4.52926,0.08085 -6.2737,0.629278 -1.11901,0.351806 -2.11427,0.76861 -2.21169,0.926231 -0.21284,0.344393 4.23212,2.490205 7.21365,3.482394 4.91872,1.636848 8.77568,1.943004 14.47087,1.148663 z m -5.28609,-1.803341 c -7.74165,-1.360927 -9.94803,-1.82976 -9.10183,-1.934045 2.12227,-0.261546 10.1003,1.04888 14.04747,2.307358 1.12886,0.359912 1.17649,0.406373 0.42392,0.413522 -0.46631,0.0044 -2.88261,-0.349646 -5.36956,-0.786835 z m 67.11952,1.812535 c 0,-1.163142 -2.06636,-4.293871 -5.15648,-7.812553 -2.88302,-3.282864 -9.12509,-7.134552 -14.98916,-9.249111 -1.95792,-0.706017 -1.96717,-0.745599 0.65074,2.785176 4.62352,6.235738 10.45033,11.064569 16.58087,13.741015 2.47643,1.081149 2.91403,1.16156 2.91403,0.535473 z m -3.58702,-2.462312 c -3.23458,-2.550134 -10.34948,-8.348775 -11.67384,-9.514179 -0.72468,-0.6377 -0.16438,-0.398248 2.09571,0.89563 2.31045,1.32271 3.94214,2.556303 6.49999,4.914126 3.43149,3.163137 6.04658,5.754723 5.80552,5.753335 -0.0712,-4.1e-4 -1.29854,-0.92242 -2.72738,-2.048912 z m -15.80488,0.848571 c -1.52771,-2.596194 -6.15197,-7.389419 -9.21423,-9.550917 -2.87398,-2.028599 -6.94007,-4.038231 -9.34125,-4.616836 -0.74204,-0.178806 -0.77421,-0.146683 -0.59621,0.595357 0.70213,2.926988 5.21077,7.27641 11.06342,10.672736 3.91509,2.271945 8.73588,4.000208 8.08827,2.89966 z m -3.49939,-1.955198 c -2.26576,-1.550917 -9.19253,-6.806069 -10.59782,-8.040281 l -0.84783,-0.744612 1.41304,0.781344 c 2.45452,1.357228 4.69157,2.962981 8.54891,6.136399 3.25649,2.679101 3.9927,3.344973 3.67391,3.322889 -0.0389,-0.0027 -1.02445,-0.657774 -2.19021,-1.455739 z m -17.52173,0.656623 c 0,-0.901368 -2.08411,-3.792953 -3.95225,-5.483519 -1.64607,-1.489612 -6.13768,-4.020436 -8.17202,-4.60457 -0.57872,-0.166173 -0.6498,-0.117253 -0.48286,0.33232 0.52941,1.425677 3.03094,5.139307 4.42652,6.571344 1.69305,1.737286 2.78469,2.364576 5.46855,3.142418 2.29994,0.666573 2.71206,0.672956 2.71206,0.04201 z m -3.96175,-2.327823 c -2.70871,-2.023179 -5.45317,-4.503963 -5.22979,-4.727339 0.0668,-0.06683 1.17667,0.70604 2.46631,1.717495 2.38249,1.868574 5.85657,4.975287 5.58956,4.998502 -0.0806,0.007 -1.35233,-0.887888 -2.82608,-1.988658 z"
       id="path2"
       inkscape:label="UOC" />
  </g>
</svg>
